<?xml version="1.0" encoding="UTF-8"?>
<svg version="1.1" xmlns="http://www.w3.org/2000/svg" width="1024" height="1024">
<path d="M0 0 C337.92 0 675.84 0 1024 0 C1024 337.92 1024 675.84 1024 1024 C686.08 1024 348.16 1024 0 1024 C0 686.08 0 348.16 0 0 Z " fill="#011222" transform="translate(0,0)"/>
<path d="M0 0 C0.79760742 0.10683105 1.59521484 0.21366211 2.41699219 0.32373047 C52.63523642 7.2086721 101.40966504 31.88951051 138.62109375 65.83984375 C140.78271952 67.80269933 142.97526262 69.7196626 145.1875 71.625 C151.66106042 77.27961603 157.45220774 83.44246313 163 90 C163.67804688 90.80050781 164.35609375 91.60101563 165.0546875 92.42578125 C184.7004905 116.02171901 200.67744739 142.41594479 212 171 C212.47880615 172.20245361 212.47880615 172.20245361 212.96728516 173.42919922 C238.20866795 237.66133592 237.67246785 312.17059232 210.87353516 375.87231445 C202.53327969 394.63906526 191.55027418 411.80819548 179 428 C178.32582031 428.87011719 177.65164063 429.74023438 176.95703125 430.63671875 C163.0195607 448.13046696 146.81000518 465.43816036 129 479 C128.27651367 479.556875 127.55302734 480.11375 126.80761719 480.6875 C96.30390827 504.12372294 96.30390827 504.12372294 86.32421875 504.1328125 C85.65050232 504.13413177 84.97678589 504.13545105 84.28265381 504.1368103 C82.08422286 504.13873118 79.88591805 504.13238454 77.6875 504.125 C76.94501007 504.12411377 76.20252014 504.12322754 75.43753052 504.12231445 C63.26927124 504.10519299 51.14579694 503.77379366 39 503 C42.53800465 500.03498839 46.51715292 498.26018011 50.6875 496.375 C57.47860108 493.24525814 64.10735536 489.89585962 70.69213867 486.35473633 C74.76588873 484.16874173 78.86379616 482.06047315 83.01806641 480.03173828 C102.55015659 470.47982919 119.30818645 459.10268551 135 444 C135.94262695 443.09822021 135.94262695 443.09822021 136.90429688 442.17822266 C145.55270057 433.86261088 153.58080925 425.39217317 160.70996094 415.734375 C162.01458755 413.98038797 163.35120384 412.25511043 164.6953125 410.53125 C172.55537615 400.3161111 178.90791614 389.3412524 185 378 C185.34514648 377.36723145 185.69029297 376.73446289 186.04589844 376.08251953 C202.84912076 344.79839856 209.46264075 307.17918293 209.375 272 C209.37468277 270.80526566 209.37468277 270.80526566 209.37435913 269.58639526 C209.33630462 255.09628518 207.91993072 241.21096932 205 227 C204.81808105 226.06236816 204.63616211 225.12473633 204.44873047 224.15869141 C200.14469822 202.13850852 192.87669404 181.12810291 183 161 C182.36771484 159.70666748 182.36771484 159.70666748 181.72265625 158.38720703 C170.29559708 135.25758467 155.86738207 114.60473217 138 96 C137.38382813 95.3512793 136.76765625 94.70255859 136.1328125 94.03417969 C126.15566679 83.57661694 115.81494217 74.32817158 104 66 C103.28231445 65.49130371 102.56462891 64.98260742 101.82519531 64.45849609 C53.19369369 30.28647212 -10.1221988 11.13402105 -69.73999023 20.12695312 C-74.20162772 20.93206064 -78.60080443 21.90648567 -83 23 C-83.87430664 23.20898926 -84.74861328 23.41797852 -85.64941406 23.63330078 C-129.69099269 34.38202244 -170.8826606 61.23395756 -195 100 C-208.62581035 122.52441568 -214.45017898 146.70883855 -214.5 172.9375 C-214.50449158 173.66095612 -214.50898315 174.38441223 -214.51361084 175.12979126 C-214.55108714 189.95419329 -212.21754245 204.04157263 -207.9375 218.25 C-207.68162109 219.13300781 -207.42574219 220.01601563 -207.16210938 220.92578125 C-205.81609675 225.64709533 -205.81609675 225.64709533 -203.92456055 230.16186523 C-202.54596935 234.39374342 -202.75479524 238.47317634 -202.8046875 242.89453125 C-202.8075174 243.84188644 -202.81034729 244.78924164 -202.81326294 245.76530457 C-202.82442813 248.78116666 -202.84952611 251.79672816 -202.875 254.8125 C-202.88503453 256.86132383 -202.89415955 258.91015232 -202.90234375 260.95898438 C-202.92435551 265.97277148 -202.95886029 270.98633483 -203 276 C-207.39237012 271.76779466 -210.31223113 267.62922087 -213.3125 262.375 C-213.78816406 261.54685791 -214.26382812 260.71871582 -214.75390625 259.86547852 C-236.77359608 220.64660554 -243.03327171 172.77549857 -231.5390625 129.26953125 C-224.92273563 105.85958948 -213.77938514 84.10837359 -197.10546875 66.2578125 C-195.22604126 64.24239675 -193.45437904 62.17590979 -191.6875 60.0625 C-162.63052381 26.96799409 -118.02444983 5.56547738 -75 -1 C-73.89156738 -1.17354004 -73.89156738 -1.17354004 -72.76074219 -1.35058594 C-48.62218492 -4.95160134 -24.05437994 -3.39144719 0 0 Z " fill="#FBF3DF" transform="translate(561,194)"/>
<path d="M0 0 C0 6.6 0 13.2 0 20 C-2.0625 21.134375 -4.125 22.26875 -6.25 23.4375 C-25.63958926 34.44075292 -40.03526375 49.32707703 -52 68 C-52.38381836 68.59780273 -52.76763672 69.19560547 -53.16308594 69.81152344 C-77.97583788 109.17510186 -82.14676497 159.44947992 -72.5234375 204.20703125 C-63.90801307 241.48399547 -47.16363076 276.32042708 -23 306 C-22.52175781 306.58861816 -22.04351562 307.17723633 -21.55078125 307.78369141 C19.4469772 357.89684783 76.64001158 390.1526831 140 403 C141.04961914 403.21317871 142.09923828 403.42635742 143.18066406 403.64599609 C159.73629911 406.82938368 176.06359128 407.36600976 192.875 407.375 C193.85180725 407.37699402 194.8286145 407.37898804 195.83502197 407.38104248 C214.23887259 407.37678725 232.99066827 406.75150392 251.0625 403 C252.07086914 402.79342773 253.07923828 402.58685547 254.11816406 402.37402344 C285.61063409 395.49371777 323.66122501 382.79949334 348 361 C348.33 360.34 348.66 359.68 349 359 C350.57632716 358.77658355 352.16287583 358.62553524 353.75 358.5 C369.943304 356.03538298 385.27170001 345.48328076 399 337 C400.03769531 336.37222656 401.07539062 335.74445313 402.14453125 335.09765625 C407.6665463 331.69177004 412.73319604 327.95886619 417.7109375 323.796875 C420.03982721 321.96873632 422.43284736 320.46953614 425 319 C419.6763941 341.4605468 402.88394083 359.96365659 383.62890625 371.91796875 C377.680221 375.43018276 371.39428844 377.80879689 364.89453125 380.08984375 C357.99085793 382.5872749 351.99690228 385.63909506 345.79101562 389.48901367 C339.40095021 393.43395084 332.80184032 396.80999479 326.02294922 400.03369141 C324.71806845 400.65699796 323.41723449 401.28888324 322.12158203 401.93115234 C310.97935071 407.44546447 299.33709971 411.39750036 287.5625 415.3125 C286.77887085 415.57325317 285.9952417 415.83400635 285.18786621 416.10266113 C271.83069953 420.52942812 258.70985823 424.2438556 244.8125 426.625 C243.61302734 426.8415625 242.41355469 427.058125 241.17773438 427.28125 C163.6057155 440.7000082 80.84991012 418.75512123 17 374 C-0.08109184 361.82043886 -16.27309926 347.88593314 -30 332 C-30.99341196 330.89068998 -31.98830249 329.78270293 -32.984375 328.67578125 C-77.07915821 279.30407039 -101.97912982 214.30650862 -98.859375 148.01171875 C-96.24412533 103.13641195 -79.92898506 61.86204663 -49 29 C-48.401875 28.33742188 -47.80375 27.67484375 -47.1875 26.9921875 C-36.7393893 15.8685524 -23.79839432 8.21394959 -10 2 C-9.12601562 1.59910156 -8.25203125 1.19820313 -7.3515625 0.78515625 C-5 0 -5 0 0 0 Z " fill="#FAF3DF" transform="translate(312,403)"/>
<path d="M0 0 C-1.74151473 3.77996976 -3.97801247 6.1254265 -7 9 C-7.45181641 9.52029785 -7.90363281 10.0405957 -8.36914062 10.57666016 C-10.42899947 12.37441122 -11.98238184 12.68731367 -14.65625 13.2109375 C-16.05170044 13.49590088 -16.05170044 13.49590088 -17.4753418 13.78662109 C-18.473479 13.98078613 -19.47161621 14.17495117 -20.5 14.375 C-22.60088168 14.80950687 -24.70113721 15.24705139 -26.80078125 15.6875 C-27.84959473 15.90664063 -28.8984082 16.12578125 -29.97900391 16.3515625 C-66.50180889 24.19094912 -105.41092123 39.1245286 -133 65 C-132.65555119 67.47266765 -132.65555119 67.47266765 -132 70 C-129.01308565 71.49345717 -127.35120733 71.423672 -124 71 C-120.83702585 69.30483634 -118.01069718 67.18769391 -115.125 65.0625 C-100.21621185 54.51272209 -84.93594881 46.81495662 -68 40 C-67.26716797 39.70464355 -66.53433594 39.40928711 -65.77929688 39.10498047 C-35.41329277 27 -35.41329277 27 -22 27 C-23.40634466 30.18046187 -25.07848343 32.33536362 -27.52734375 34.79296875 C-28.23149414 35.50122803 -28.93564453 36.2094873 -29.66113281 36.93920898 C-30.41233398 37.68114502 -31.16353516 38.42308105 -31.9375 39.1875 C-32.70803711 39.95199463 -33.47857422 40.71648926 -34.27246094 41.50415039 C-39.92792884 47.06196738 -45.70362736 52.17403774 -52 57 C-53.29164063 58.051875 -53.29164063 58.051875 -54.609375 59.125 C-71.78412553 72.86480042 -90.84217047 84.47626554 -109.66796875 95.78125 C-114.59561559 98.74190105 -119.46273812 101.78883512 -124.3125 104.875 C-142.30413325 116.29737059 -160.39596456 127.59686348 -179 138 C-179.80646973 138.45713379 -180.61293945 138.91426758 -181.44384766 139.38525391 C-218.78909913 160.41962034 -260.48766918 170.3529821 -302.55883789 159.40771484 C-328.90538049 152.04071509 -352.86558132 134.56994104 -366.62109375 110.76953125 C-375.22915031 93.48026183 -377.65013511 75.45652197 -372.03515625 56.79296875 C-367.4144919 44.67344844 -359.32220831 35.18944481 -347.375 29.8203125 C-344.77817133 28.92338155 -342.72778802 28.8441264 -340 29 C-341.72210153 30.14806769 -343.45934089 31.27544392 -345.234375 32.33984375 C-352.25094927 36.79602213 -356.21359936 41.63811229 -360 49 C-360.43441406 49.83144531 -360.86882812 50.66289063 -361.31640625 51.51953125 C-367.06751438 64.56472775 -364.78022699 81.00553792 -359.875 93.9375 C-350.79107917 114.68933087 -332.34732815 127.6996735 -312 136 C-308.69274278 137.25308799 -305.45160298 138.23743655 -302 139 C-301.14148438 139.20238281 -300.28296875 139.40476562 -299.3984375 139.61328125 C-268.31020051 145.90800692 -237.87761073 136.38830981 -211.93432617 119.41552734 C-203.31409254 113.61119562 -195.67306815 106.7917252 -188.0625 99.75 C-187.42320557 99.15936768 -186.78391113 98.56873535 -186.12524414 97.96020508 C-183.42630039 95.42884865 -180.98871533 92.98576571 -178.68359375 90.078125 C-178.12800781 89.39234375 -177.57242188 88.7065625 -177 88 C-176.34 88 -175.68 88 -175 88 C-174.72886383 87.40387405 -174.45772766 86.80774811 -174.17837524 86.19355774 C-173.01630797 84.03035746 -171.87542967 82.62762356 -170.14599609 80.90307617 C-169.57134613 80.32534958 -168.99669617 79.74762299 -168.40463257 79.15238953 C-167.7838382 78.53878067 -167.16304382 77.92517181 -166.5234375 77.29296875 C-165.87935944 76.64934891 -165.23528137 76.00572906 -164.57168579 75.34260559 C-163.20721862 73.98115702 -161.84032432 72.62213725 -160.47119141 71.26538086 C-158.39826306 69.21055985 -156.33330021 67.14800013 -154.26953125 65.08398438 C-152.93796785 63.75734275 -151.60595051 62.43115656 -150.2734375 61.10546875 C-149.66478851 60.49793259 -149.05613953 59.89039642 -148.42904663 59.26445007 C-135.19230019 46.16997749 -120.53221479 34.61667892 -104 26 C-103.09894531 25.51587646 -103.09894531 25.51587646 -102.1796875 25.02197266 C-70.30322981 7.90838279 -36.11354903 -1.11633846 0 0 Z " fill="#EDC47F" transform="translate(729,570)"/>
<path d="M0 0 C2.90528987 2.62383991 4.85225057 5.68034324 7 8.9375 C18.61759177 26.01796925 33.92908487 39.16239964 52 49 C53.01835937 49.56460938 54.03671875 50.12921875 55.0859375 50.7109375 C92.34001806 70.38668514 134.7025887 67.65909643 173.8125 55.6875 C176.54853801 54.81201053 179.27456693 53.90789978 182 53 C182.91716797 52.69658691 183.83433594 52.39317383 184.77929688 52.08056641 C189.95035029 50.36943304 195.11769233 48.64768313 200.28125 46.9140625 C203.63079997 45.78985331 206.9825463 44.67480072 210.34375 43.5859375 C216.58077909 41.55497214 222.68465837 39.36275863 228.75 36.875 C244.79218346 30.34484422 260.59875562 28.64819372 277.8125 28.75 C279.15299846 28.7428446 280.49349358 28.73503322 281.83398438 28.7265625 C289.12891084 28.74104374 295.92479599 29.16564916 303 31 C299.26722775 51.9506046 281.27150902 71.6737597 264.53955078 83.43359375 C252.98257983 91.2193426 240.15759076 96.56535417 227 101 C225.87335938 101.38027344 224.74671875 101.76054688 223.5859375 102.15234375 C207.33374384 107.19547176 190.7010612 108.49152982 173.76660156 108.33618164 C170.94568465 108.31203507 168.12568526 108.31572432 165.3046875 108.32226562 C163.49478604 108.31670355 161.6848885 108.30960305 159.875 108.30078125 C158.62203125 108.30214836 158.62203125 108.30214836 157.34375 108.30354309 C150.26504935 108.21659347 150.26504935 108.21659347 147 106 C177.54580142 83.16407634 217.58292365 66.96999699 255.41577148 62.62060547 C258.33860722 62.22823397 258.33860722 62.22823397 260 59 C259.68493373 55.85778033 259.68493373 55.85778033 259 53 C232.62309069 47.92751744 195.12418208 64.14486057 172 76 C170.70442271 76.63416847 169.40749142 77.26557661 168.109375 77.89453125 C161.22689911 81.25031144 154.51185493 84.80672236 147.875 88.625 C129.63976537 99.05817196 112.39074434 104.33796634 91.5625 99 C62.11198513 90.82741506 37.7746528 70.35250317 20 46 C19.28457031 45.02933594 18.56914062 44.05867187 17.83203125 43.05859375 C10.08649176 32.04704342 0 13.91214572 0 0 Z " fill="#3B6A7A" transform="translate(345,686)"/>
<path d="M0 0 C22.73869047 3.09280084 50.89276174 21.16699554 65.5078125 38.8359375 C72.95750512 49.63994199 75.30783444 59.42044275 75.22705078 72.26928711 C75.22734283 73.48950562 75.22763489 74.70972412 75.22793579 75.96691895 C75.22678532 79.2950093 75.21678957 82.62284822 75.20278788 85.95089412 C75.19024281 89.43556263 75.18910705 92.92023488 75.18673706 96.40492249 C75.18053335 102.9956329 75.16413763 109.58627657 75.14403808 116.17695767 C75.12164446 123.6836183 75.11067696 131.19028221 75.10064721 138.69696796 C75.07977036 154.13135056 75.04461607 169.56566666 75 185 C73.84250244 183.8411731 73.84250244 183.8411731 72.66162109 182.65893555 C63.43535173 173.44197538 54.10806523 165.81109486 43 159 C42.4136377 158.63729004 41.82727539 158.27458008 41.22314453 157.90087891 C31.99194282 152.26430972 22.26034595 147.72285416 12.44921875 143.20703125 C11.14031493 142.6023222 9.83151692 141.99738407 8.52282715 141.39221191 C5.34976546 139.92550141 2.17528833 138.46188494 -1 137 C-1.02332832 119.28507533 -1.04097884 101.57015463 -1.05181217 83.85521793 C-1.05697527 75.63044281 -1.06401823 67.40567721 -1.07543945 59.1809082 C-1.08538586 52.01479554 -1.09185332 44.84868977 -1.09408849 37.6825704 C-1.09539568 33.88583011 -1.09848198 30.08910955 -1.10573006 26.29237556 C-1.1124896 22.72281098 -1.1146171 19.15327437 -1.11310768 15.58370399 C-1.11351636 13.64085154 -1.1189119 11.69800216 -1.12442017 9.75515747 C-1.1230455 8.60945786 -1.12167084 7.46375824 -1.12025452 6.28334045 C-1.12117631 5.28135148 -1.1220981 4.27936251 -1.12304783 3.24701023 C-1 1 -1 1 0 0 Z " fill="#F9F2DE" transform="translate(434,367)"/>
<path d="M0 0 C0 45.54 0 91.08 0 138 C-5.61 139.98 -11.22 141.96 -17 144 C-23.07461188 146.84142686 -23.07461188 146.84142686 -29.02734375 149.875 C-29.6807373 150.22433594 -30.33413086 150.57367187 -31.00732422 150.93359375 C-31.66490723 151.28550781 -32.32249023 151.63742187 -33 152 C-33.66918457 152.34933594 -34.33836914 152.69867187 -35.02783203 153.05859375 C-49.59980774 160.68139493 -61.68001592 170.07954525 -73 182 C-73.9979729 183.002023 -74.9976014 184.00240437 -76 185 C-76.07022659 169.00513713 -76.1230548 153.01032462 -76.15543652 137.01534462 C-76.17087467 129.58781389 -76.19190545 122.16037921 -76.22631836 114.73291016 C-76.25631459 108.25559654 -76.27559716 101.77835253 -76.28226548 95.30097139 C-76.28616053 91.87442488 -76.29524985 88.44807742 -76.31719017 85.021595 C-76.33904467 81.18696662 -76.34196348 77.35274729 -76.34057617 73.51806641 C-76.351362 72.39452759 -76.36214783 71.27098877 -76.3732605 70.11340332 C-76.30953537 53.77876222 -69.41842809 41.39887599 -58 30 C-45.60248932 17.82387344 -29.26864165 9.9531804 -13.3125 3.5 C-12.02001343 2.97418335 -12.02001343 2.97418335 -10.70141602 2.43774414 C-9.88858154 2.11797607 -9.07574707 1.79820801 -8.23828125 1.46875 C-7.51680908 1.18451172 -6.79533691 0.90027344 -6.05200195 0.60742188 C-4 0 -4 0 0 0 Z " fill="#FAF3DE" transform="translate(598,367)"/>
<path d="M0 0 C3.34744576 2.94752116 6.58885734 5.99834703 9.79052734 9.10302734 C11.16657061 10.43548758 12.55968871 11.75025223 13.95410156 13.06347656 C34.9498513 33.27311398 56.69415186 67.08442811 57.34472656 96.94238281 C57.32023438 97.79832031 57.29574219 98.65425781 57.27050781 99.53613281 C54.64131911 97.15024217 53.01029888 94.58275751 51.20800781 91.53613281 C47.85836165 86.17528261 43.99190752 81.6758457 39.66503906 77.08300781 C37.68037411 74.97207543 35.81060173 72.82358432 33.95800781 70.59863281 C7.58596525 40.49412019 -37.92597985 9.82932967 -78.72949219 6.53613281 C-106.88255245 5.03532629 -131.93309334 11.56821226 -153.47167969 30.60961914 C-164.73216874 40.83894711 -172.82852855 51.48288493 -178.60449219 65.59863281 C-179.20777344 67.04012695 -179.20777344 67.04012695 -179.82324219 68.51074219 C-180.80049283 70.84916338 -181.76902387 73.19078082 -182.72949219 75.53613281 C-186.05412725 71.7653346 -188.07259595 67.94055855 -189.85449219 63.28613281 C-190.11311035 62.61864014 -190.37172852 61.95114746 -190.63818359 61.26342773 C-196.33841079 46.23240638 -195.86667211 33.56142859 -189.51464844 18.69238281 C-178.16283103 -4.20867491 -152.97509765 -18.36936752 -129.72949219 -26.46386719 C-85.7742603 -40.7267832 -35.11054427 -29.71807219 0 0 Z " fill="#3B6A7A" transform="translate(602.7294921875,261.4638671875)"/>
<path d="M0 0 C5.19729994 0.56404806 9.11440482 2.26148279 13.6875 4.625 C14.74686768 5.1667688 14.74686768 5.1667688 15.82763672 5.71948242 C30.48568799 13.32211612 43.29327954 23.25135555 55.26928711 34.55957031 C57.91504435 37.07996529 57.91504435 37.07996529 61 39 C61 39.66 61 40.32 61 41 C61.99 41.33 62.98 41.66 64 42 C65.5847168 43.56640625 65.5847168 43.56640625 67.26171875 45.5625 C67.8757959 46.28695312 68.48987305 47.01140625 69.12255859 47.7578125 C69.74211426 48.49773437 70.36166992 49.23765625 71 50 C72.13144011 51.31256061 73.26294884 52.62506207 74.39453125 53.9375 C100.90511534 85.23652485 115.88777169 121.5011738 113 163 C110.5361683 190.19625338 99.8829629 214.94298311 84 237 C83.43990234 237.77827148 82.87980469 238.55654297 82.30273438 239.35839844 C80.39734392 241.99488108 78.48258295 244.62420001 76.5625 247.25 C75.93448486 248.10964355 75.30646973 248.96928711 74.65942383 249.85498047 C74.07185303 250.65049316 73.48428223 251.44600586 72.87890625 252.265625 C72.3485376 252.98524414 71.81816895 253.70486328 71.27172852 254.44628906 C70.85205811 254.95901367 70.4323877 255.47173828 70 256 C69.67 256 69.34 256 69 256 C69.12375 254.741875 69.2475 253.48375 69.375 252.1875 C69.46467041 251.26525635 69.55434082 250.3430127 69.64672852 249.39282227 C69.90507295 246.9116802 70.18725032 244.43997314 70.49194336 241.96459961 C71.81093807 230.93907092 72.28598834 220.08333643 72.20581055 208.98339844 C72.18745817 206.36904118 72.18530281 203.75504041 72.18554688 201.140625 C72.15328145 184.87971167 71.18401901 168.83014018 69.25 152.6875 C69.16418671 151.9637619 69.07837341 151.2400238 68.98995972 150.49435425 C66.46525881 129.38702527 63.10290852 108.39822895 57 88 C56.80970215 87.35353516 56.6194043 86.70707031 56.42333984 86.04101562 C47.14898377 55.00421955 29.60212849 26.28376634 5.1640625 4.91015625 C3.37130383 3.3277393 1.66556179 1.71391681 0 0 Z " fill="#EEC580" transform="translate(616,250)"/>
<path d="M0 0 C1.34049846 -0.0071554 2.68099358 -0.01496678 4.02148438 -0.0234375 C11.31641084 -0.00895626 18.11229599 0.41564916 25.1875 2.25 C21.45472775 23.2006046 3.45900902 42.9237597 -13.27294922 54.68359375 C-24.82992017 62.4693426 -37.65490924 67.81535417 -50.8125 72.25 C-51.93914062 72.63027344 -53.06578125 73.01054688 -54.2265625 73.40234375 C-70.47875616 78.44547176 -87.1114388 79.74152982 -104.04589844 79.58618164 C-106.86681535 79.56203507 -109.68681474 79.56572432 -112.5078125 79.57226562 C-114.31771396 79.56670355 -116.1276115 79.55960305 -117.9375 79.55078125 C-118.7728125 79.55169266 -119.608125 79.55260406 -120.46875 79.55354309 C-127.54745065 79.46659347 -127.54745065 79.46659347 -130.8125 77.25 C-100.26669858 54.41407634 -60.22957635 38.21999699 -22.39672852 33.87060547 C-19.47389278 33.47823397 -19.47389278 33.47823397 -17.8125 30.25 C-18.12756627 27.10778033 -18.12756627 27.10778033 -18.8125 24.25 C-29.70938895 22.15444443 -40.46075006 25.48953397 -51.0625 28.0625 C-52.14281494 28.32168213 -53.22312988 28.58086426 -54.33618164 28.84790039 C-62.01426517 30.72351954 -69.51692617 32.91459579 -76.99609375 35.46484375 C-79.8125 36.25 -79.8125 36.25 -81.8125 35.25 C-79.54566922 32.52156005 -77.19191425 29.88070552 -74.8125 27.25 C-74.35649414 26.74114258 -73.90048828 26.23228516 -73.43066406 25.70800781 C-63.49189966 14.74988296 -53.60312847 8.82640553 -39.375 4.4375 C-38.74432617 4.24220703 -38.11365234 4.04691406 -37.46386719 3.84570312 C-25.22767221 0.39493763 -12.6294135 -0.07469343 0 0 Z " fill="#EDC47E" transform="translate(622.8125,714.75)"/>
<path d="M0 0 C0.66 0.33 1.32 0.66 2 1 C1.66226563 1.67804687 1.32453125 2.35609375 0.9765625 3.0546875 C0.30753906 4.45074219 0.30753906 4.45074219 -0.375 5.875 C-0.81585938 6.77992188 -1.25671875 7.68484375 -1.7109375 8.6171875 C-5.73570785 19.1791606 -5.32687379 30.02351652 -5.3359375 41.15625 C-5.34237977 43.02697853 -5.34910914 44.89770609 -5.35610962 46.76843262 C-5.36804256 50.68190846 -5.37179484 54.59529633 -5.37060547 58.50878906 C-5.37040314 63.47300878 -5.39763442 68.43665053 -5.43214989 73.40073395 C-5.4546224 77.26516195 -5.45843676 81.12945567 -5.45738602 84.99394226 C-5.45971424 86.82120239 -5.46837668 88.64846785 -5.48405075 90.47566223 C-5.73911509 123.29511533 6.56816188 154.99829533 29.15234375 178.9765625 C31 181 31 181 33 184 C27.46072783 181.94418134 22.88895769 178.8343776 18 175.5625 C17.06244873 174.93577393 16.12489746 174.30904785 15.15893555 173.66333008 C7.63809635 168.56631142 0.73314902 163.0833766 -6 157 C-6.91136719 156.20851563 -7.82273437 155.41703125 -8.76171875 154.6015625 C-28.04464048 137.7109913 -43.38869596 114.01632547 -46 88 C-47.62197299 62.86257422 -41.76948144 40.63189742 -25.15307617 21.30639648 C-18.84661118 14.2786676 -11.55903562 8.61390798 -4 3 C-3.20464844 2.40316406 -2.40929687 1.80632813 -1.58984375 1.19140625 C-1.06519531 0.79824219 -0.54054688 0.40507813 0 0 Z " fill="#EDC37F" transform="translate(335,574)"/>
<path d="M0 0 C-3.61631033 27.41918877 -23.35687101 46.88647357 -42.38964844 65.19775391 C-52.5922933 75.04067198 -61.1727719 85.19288882 -67.3125 98.125 C-67.63951904 98.79893799 -67.96653809 99.47287598 -68.3034668 100.16723633 C-74.05083192 112.20297947 -77.69594307 124.69861928 -79 138 C-79.66 138 -80.32 138 -81 138 C-91.62679488 117.79453247 -95.97954609 98.80945731 -90 76.22265625 C-86.11711256 63.84595252 -80.49434848 52.82418777 -72 43 C-71.18660156 42.04222656 -70.37320312 41.08445312 -69.53515625 40.09765625 C-55.12323812 23.50682472 -23.0387535 0 0 0 Z " fill="#3B6A79" transform="translate(350,510)"/>
<path d="M0 0 C2.75329021 1.79562405 4.52627461 3.05254922 6 6 C6.09345312 7.81188736 6.12191292 9.62726378 6.12025452 11.44155884 C6.12231651 13.17479149 6.12231651 13.17479149 6.12442017 14.94303894 C6.11902725 16.85382988 6.11902725 16.85382988 6.11352539 18.80322266 C6.11324343 20.15325417 6.11340143 21.50328584 6.1139679 22.85331726 C6.11425552 26.5245827 6.10836443 30.19581566 6.10139394 33.86707354 C6.09515459 37.70145027 6.09455614 41.53582771 6.09336853 45.37020874 C6.09025693 52.63396423 6.08204585 59.89770473 6.07201904 67.1614536 C6.06085259 75.42978075 6.05534611 83.69810859 6.05032361 91.96644139 C6.0398631 108.97763628 6.02226696 125.98881656 6 143 C4.88485268 143.51287064 4.88485268 143.51287064 3.74717712 144.03610229 C0.9494474 145.32339399 -1.84786551 146.61158619 -4.64491272 147.90036011 C-6.43504047 148.72486232 -8.22563303 149.54835512 -10.01623535 150.37182617 C-18.0886651 154.09232377 -26.10193456 157.8948183 -34.00146484 161.96972656 C-35.43730337 162.70992185 -36.87540447 163.44573431 -38.31494141 164.17871094 C-64.04931587 177.29418088 -87.45738802 192.63097186 -101 219 C-101.33 219 -101.66 219 -102 219 C-102.79819269 205.10553458 -98.10502875 194.74682691 -89.10839844 184.27856445 C-69.90288747 162.86991966 -41.92323146 149.92817987 -15 141 C-15.00194823 139.96466535 -15.00194823 139.96466535 -15.00393581 138.90841484 C-15.03314798 122.10722896 -15.02376955 105.30655176 -14.97153378 88.50543022 C-14.94720157 80.38045663 -14.93589117 72.25585589 -14.95532227 64.13085938 C-14.97222706 57.04836948 -14.96461132 49.9664011 -14.92765242 42.88397992 C-14.90893874 39.13430135 -14.90243566 35.3855046 -14.92530632 31.63582993 C-14.95039126 27.44774472 -14.92072537 23.26175082 -14.88647461 19.07373047 C-14.9022908 17.83295242 -14.91810699 16.59217438 -14.93440247 15.313797 C-14.80560973 7.14387182 -14.80560973 7.14387182 -12.51004219 3.88443375 C-8.52218542 0.27913376 -5.49440552 -1.0174825 0 0 Z " fill="#F1C880" transform="translate(625,372)"/>
<path d="M0 0 C2.60615038 1.65579944 3.57934219 2.36235763 5 5 C5.73900766 9.37731372 5.63066485 13.71456544 5.56762695 18.14379883 C5.5662158 19.49427233 5.56700978 20.84474967 5.56983948 22.19522095 C5.57127246 25.85423656 5.54190309 29.51243049 5.50696969 33.17125535 C5.47568588 36.99756582 5.47277388 40.82389571 5.46684265 44.65031433 C5.45131006 51.89289455 5.41028984 59.13509683 5.3600952 66.37751073 C5.30418328 74.62409103 5.27671064 82.87068951 5.25161803 91.11741221 C5.1993732 108.07849332 5.11144264 125.03920668 5 142 C4.43926725 142.25173037 3.87853451 142.50346073 3.30080986 142.76281929 C0.71316298 143.9248531 -1.87413287 145.08766657 -4.46142578 146.25048828 C-5.34312943 146.64629593 -6.22483307 147.04210358 -7.133255 147.4499054 C-15.41984212 151.17537481 -23.6581727 154.99843651 -31.875 158.875 C-32.59858704 159.2162793 -33.32217407 159.55755859 -34.06768799 159.90917969 C-76.68022151 178.3811149 -76.68022151 178.3811149 -103.87109375 214.203125 C-107.02340044 223.79579032 -106.68188206 234.01109654 -107 244 C-116.405 240.535 -116.405 240.535 -126 237 C-125.3258307 230.9324763 -124.64007951 225.8116714 -122.8125 220.125 C-122.59110352 219.43446533 -122.36970703 218.74393066 -122.14160156 218.0324707 C-111.00320348 184.64446221 -77.94439585 167.83795421 -48.52929688 153.10351562 C-47.77253662 152.72622314 -47.01577637 152.34893066 -46.23608398 151.96020508 C-43.93162845 150.80956828 -41.63275119 149.64828043 -39.33398438 148.48632812 C-37.81542871 147.72591403 -36.29655885 146.96612701 -34.77734375 146.20703125 C-34.11749985 145.87250443 -33.45765594 145.5379776 -32.77781677 145.1933136 C-25.70373054 141.6892532 -18.34474093 138.87743196 -11 136 C-10.99761165 135.31731898 -10.99522329 134.63463797 -10.99276257 133.93126965 C-10.93366476 117.33150318 -10.85814845 100.73190128 -10.76428509 84.13229656 C-10.71929098 76.10489399 -10.67988476 68.07753614 -10.65356445 60.05004883 C-10.63061353 53.05449774 -10.59724832 46.05908776 -10.55129844 39.06364852 C-10.52732674 35.35849356 -10.50862396 31.65347869 -10.50238609 27.94824791 C-10.49523299 23.81514883 -10.46483283 19.68253832 -10.43237305 15.54956055 C-10.43452568 13.70026695 -10.43452568 13.70026695 -10.4367218 11.81361389 C-10.41791458 10.12880417 -10.41791458 10.12880417 -10.39872742 8.40995789 C-10.39411845 7.43193553 -10.38950949 6.45391317 -10.38476086 5.44625378 C-10 3 -10 3 -8.68601704 1.19312763 C-5.77084878 -0.86982175 -3.43898921 -0.47434334 0 0 Z " fill="#D3A765" transform="translate(655,387)"/>
<path d="M0 0 C2.92937654 1.81310142 5.43647949 3.87295899 7 7 C7.09332602 8.77388812 7.12191465 10.5513266 7.12025452 12.32766724 C7.12162918 13.45791321 7.12300385 14.58815918 7.12442017 15.75265503 C7.12082489 16.99846344 7.11722961 18.24427185 7.11352539 19.52783203 C7.11367142 20.83510254 7.11381744 22.14237305 7.1139679 23.48925781 C7.1142555 27.07994761 7.10836466 30.6706042 7.10139394 34.26128626 C7.09515433 38.01158131 7.09455612 41.76187707 7.09336853 45.51217651 C7.09025701 52.61656032 7.08204603 59.72092878 7.07201904 66.82530582 C7.06085235 74.91225789 7.05534605 82.99921067 7.05032361 91.08616853 C7.03986327 107.72412134 7.02226728 124.36205871 7 141 C7.61345811 141.20167251 8.22691622 141.40334501 8.85896397 141.61112881 C9.66609805 141.8779852 10.47323214 142.14484159 11.30482483 142.41978455 C12.50344949 142.81510581 12.50344949 142.81510581 13.7262888 143.21841335 C18.785567 144.95753672 23.59100163 147.31077195 28.4375 149.5625 C30.15078491 150.35769043 30.15078491 150.35769043 31.89868164 151.16894531 C54.52986682 161.79236281 84.21789623 176.61182726 94.390625 201.28515625 C95.76253881 207.39720817 95.27477563 213.7793851 95 220 C92.84338089 217.23801412 91.07856481 214.43344676 89.375 211.375 C85.93171631 205.57353691 81.64983901 200.85594889 77 196 C76.45859375 195.39542969 75.9171875 194.79085937 75.359375 194.16796875 C54.67709644 171.86662293 20.80088432 159.24680652 -6 146 C-8.00027534 145.00055087 -10.00031301 144.00062578 -12 143 C-12.0934402 125.22381465 -12.1639776 107.44769304 -12.20724869 89.67131519 C-12.22787422 81.41743066 -12.25599453 73.16369871 -12.30175781 64.90991211 C-12.341626 57.71592615 -12.36743288 50.5220507 -12.37635398 43.32795733 C-12.38156881 39.51866297 -12.39382497 35.70968475 -12.42292023 31.90049171 C-12.45008932 28.31438888 -12.45844216 24.72873214 -12.45243073 21.14253616 C-12.45405425 19.20039936 -12.47556933 17.25831105 -12.49768066 15.31629944 C-12.49218201 14.15668701 -12.48668335 12.99707458 -12.48101807 11.80232239 C-12.48470524 10.79664624 -12.48839241 9.7909701 -12.49219131 8.75481892 C-11.8642901 5.24042506 -10.43672649 3.55876248 -8 1 C-5.09704195 -0.45147903 -3.22738221 -0.37239025 0 0 Z " fill="#EEC580" transform="translate(413,372)"/>
<path d="M0 0 C3.71439952 0.61906659 4.67543592 1.58991987 7 4.5 C7.50780869 7.03806686 7.50780869 7.03806686 7.51898193 9.95428467 C7.53289474 11.06203751 7.54680756 12.16979034 7.56114197 13.31111145 C7.5561116 14.52167709 7.55108124 15.73224274 7.54589844 16.97949219 C7.55623611 18.25779404 7.56657379 19.53609589 7.57722473 20.85313416 C7.60509476 24.35493781 7.60848922 27.85638839 7.60750484 31.35828686 C7.61063313 35.01923221 7.63624952 38.68001834 7.65948486 42.34088135 C7.70005502 49.27165082 7.72038789 56.20232618 7.73345876 63.13319612 C7.74932542 71.02439608 7.78773957 78.91543582 7.82805204 86.80654287 C7.91046483 103.03764919 7.96454824 119.26872175 8 135.5 C10.96850898 137.07036931 13.93836847 138.63816843 16.90844727 140.20556641 C18.14880611 140.86178734 18.14880611 140.86178734 19.41422272 141.53126526 C25.05797921 144.5076157 30.74019657 147.39349907 36.46484375 150.2109375 C37.69187799 150.81500427 37.69187799 150.81500427 38.94370079 151.43127441 C40.47364584 152.18394157 42.0035919 152.93660666 43.53353882 153.68927002 C82.11493202 172.71915909 82.11493202 172.71915909 96 185.5 C96.77214844 186.180625 97.54429687 186.86125 98.33984375 187.5625 C109.63426557 198.06534695 119.40876863 214.2117349 122 229.5 C122.0772283 232.16993688 122.02768815 234.82809351 122 237.5 C119.37646482 238.50399524 116.75132205 239.50334445 114.125 240.5 C113.37863281 240.78617188 112.63226563 241.07234375 111.86328125 241.3671875 C106.2265625 243.5 106.2265625 243.5 104 243.5 C103.94392578 241.99373047 103.94392578 241.99373047 103.88671875 240.45703125 C103.17776614 224.53497402 100.46886582 207.15365198 88.84765625 195.17578125 C88.23792969 194.62277344 87.62820313 194.06976562 87 193.5 C85.85337891 192.43845703 85.85337891 192.43845703 84.68359375 191.35546875 C74.34226396 182.64623999 62.06033705 177.0659155 50.04980469 171.04345703 C46.40920438 169.20100785 42.8293019 167.27106182 39.25 165.3125 C32.22148768 161.53538233 25.0353376 158.10943097 17.81933594 154.70629883 C12.04948397 151.9815328 6.32439015 149.17864721 0.62084961 146.31835938 C-0.11490547 145.94990906 -0.85066055 145.58145874 -1.60871124 145.20184326 C-3.40604146 144.30169585 -5.20305359 143.40091336 -7 142.5 C-7.09340732 124.57615974 -7.16396145 106.65238257 -7.20724869 88.72835159 C-7.2278812 80.40605792 -7.25601484 72.08391541 -7.30175781 63.76171875 C-7.34160464 56.50877875 -7.3674278 49.25594821 -7.37635398 42.00290179 C-7.38157244 38.16178257 -7.39385159 34.32097651 -7.42292023 30.47995758 C-7.45005559 26.86513163 -7.45844899 23.25074805 -7.45243073 19.63582993 C-7.45405714 17.67560945 -7.47558984 15.71543724 -7.49768066 13.75534058 C-7.49218201 12.58868866 -7.48668335 11.42203674 -7.48101807 10.22003174 C-7.48470524 9.20605946 -7.48839241 8.19208717 -7.49219131 7.14738846 C-6.66218972 2.68299307 -4.40129852 0.73354975 0 0 Z " fill="#D3A35F" transform="translate(380,386.5)"/>
<path d="M0 0 C0.33 0 0.66 0 1 0 C2.34143985 37.55206091 -6.39545987 69.70043273 -31.62109375 97.93359375 C-38.67912966 105.32722721 -46.59056202 111.24017739 -55 117 C-55.85207031 117.598125 -56.70414063 118.19625 -57.58203125 118.8125 C-67.06607556 125.01671298 -82.52661041 131.4761043 -93.9375 131.125 C-94.70964844 131.10695313 -95.48179687 131.08890625 -96.27734375 131.0703125 C-96.84582031 131.04710937 -97.41429687 131.02390625 -98 131 C-97.505 130.01 -97.505 130.01 -97 129 C-96.34 129 -95.68 129 -95 129 C-94.72091797 128.26966553 -94.44183594 127.53933105 -94.15429688 126.78686523 C-86.95838448 109.41348537 -75.41598703 93.26427075 -62.52734375 79.67578125 C-60.40974835 77.43381395 -58.37703958 75.15668953 -56.375 72.8125 C-53.15795403 69.09519569 -49.68672305 65.67266711 -46.19140625 62.21875 C-43.5827354 59.57752889 -41.14513964 56.82584946 -38.73046875 54.0078125 C-36.93908636 51.92932368 -35.09627922 49.90478364 -33.25 47.875 C-27.86551312 41.82266978 -22.92634205 35.42598672 -18 29 C-17.27425781 28.05898438 -16.54851562 27.11796875 -15.80078125 26.1484375 C-9.66944643 17.98135498 -4.4680706 9.18436734 0 0 Z " fill="#ECC37D" transform="translate(779,593)"/>
<path d="M0 0 C4.46384433 3.70771023 7.55087785 8.30637397 10.62890625 13.18359375 C7.785886 14.60510388 5.82446682 13.60138396 2.86523438 12.84741211 C-8.09878915 10.05539495 -20.23971654 7.39769686 -30.99609375 12.24609375 C-37.46598157 16.09540516 -41.43464881 21.30392274 -44.37109375 28.18359375 C-45.4192889 36.23864294 -45.23979787 44.41934083 -40.37109375 51.18359375 C-34.50694002 57.6041188 -29.38737626 61.09505782 -20.62109375 61.55859375 C-12.28706644 61.37032506 -5.21490323 58.02740323 0.62890625 52.18359375 C1.28890625 50.86359375 1.94890625 49.54359375 2.62890625 48.18359375 C6.58890625 48.18359375 10.54890625 48.18359375 14.62890625 48.18359375 C12.50339843 58.81113286 6.39264404 67.82397946 -2.55859375 73.87109375 C-12.95167538 80.1682424 -22.53399458 81.60160227 -34.37109375 79.05859375 C-40.40419875 77.40897711 -45.28426238 74.78159642 -50.37109375 71.18359375 C-51.32628906 70.52230469 -51.32628906 70.52230469 -52.30078125 69.84765625 C-59.7560138 64.11541078 -65.87581943 54.51895508 -67.37109375 45.18359375 C-68.33702867 31.29317748 -67.00852016 19.62727262 -58.37109375 8.18359375 C-42.61942556 -9.17087577 -19.65301061 -12.99950204 0 0 Z " fill="#EBC37F" transform="translate(537.37109375,294.81640625)"/>
<path d="M0 0 C0.66 0 1.32 0 2 0 C2.483059 1.39449109 2.96125517 2.79066707 3.4375 4.1875 C3.70433594 4.96480469 3.97117187 5.74210937 4.24609375 6.54296875 C9.11541773 22.41242358 5.27924422 37.73907768 -2.25390625 52.03515625 C-13.7592563 71.5710862 -31.18261134 85.51864908 -51 96 C-51.33 96 -51.66 96 -52 96 C-53.98622811 70.95145656 -41.5432449 45.63093349 -25.7578125 26.98828125 C-21.40977853 22.17233531 -16.75107531 17.63601631 -12.11499023 13.09985352 C-8.78441207 9.8358028 -5.58306359 6.57662339 -2.60546875 2.984375 C-1.74566406 1.99953125 -0.88585937 1.0146875 0 0 Z " fill="#3E6B7A" transform="translate(747,457)"/>
<path d="M0 0 C10.93344108 2.3527658 18.37511255 6.65988605 24.78125 15.984375 C29.21190163 23.31199116 30.0936399 30.47574138 29 39 C26.98879901 45.10809189 23.90543526 49.81243331 19 54 C18.030625 54.886875 17.06125 55.77375 16.0625 56.6875 C8.89924966 62.09648495 0.63690446 61.85821249 -8 61 C-15.34856132 58.80608169 -20.63462241 53.11362233 -25 47 C-27.43279159 42.00013936 -27.55457151 37.46649059 -27 32 C-25.18534174 26.75765392 -21.97600412 23.71093717 -18 20 C-17.01 20.33 -16.02 20.66 -15 21 C-13.63871909 24.11681258 -12.50917696 27.23320032 -11.42578125 30.453125 C-10.24140875 33.708566 -9.29118629 35.76072699 -6.58984375 37.98046875 C-2.51972272 39.58273359 0.8381459 39.15909581 5 38 C7.99452434 35.75410675 8.81623122 34.55130633 10 31 C10.491605 25.28230021 10.491605 25.28230021 8.375 20.125 C5.71833779 17.46510021 5.71833779 17.46510021 0 16 C0 10.72 0 5.44 0 0 Z " fill="#3B6B79" transform="translate(406,598)"/>
<path d="M0 0 C-0.55800061 15.9030174 -10.34516705 31.25132241 -17.6640625 45.0234375 C-18.11426758 45.87196289 -18.56447266 46.72048828 -19.02832031 47.59472656 C-19.90538094 49.2426338 -20.78730463 50.88796492 -21.67480469 52.53027344 C-23.85741588 56.61504858 -25.70000958 60.52860437 -27 65 C-27.66 65 -28.32 65 -29 65 C-29.24363281 65.83273437 -29.48726563 66.66546875 -29.73828125 67.5234375 C-31.18302144 71.50430056 -33.07237315 74.96978811 -35.1875 78.625 C-35.78425537 79.66636108 -35.78425537 79.66636108 -36.39306641 80.72875977 C-37.20345662 82.14118656 -38.01594233 83.55241321 -38.83056641 84.96240234 C-39.91845343 86.85791489 -40.98454473 88.76370499 -42.04296875 90.67578125 C-42.94982422 92.29033203 -42.94982422 92.29033203 -43.875 93.9375 C-44.40867187 94.89527344 -44.94234375 95.85304688 -45.4921875 96.83984375 C-47 99 -47 99 -50 100 C-50.83718764 70.56534109 -44.6135308 40.33444263 -24 18 C-23.15566406 17.07574219 -22.31132812 16.15148437 -21.44140625 15.19921875 C-6.94147497 0 -6.94147497 0 0 0 Z " fill="#3E6A78" transform="translate(303,458)"/>
<path d="M0 0 C5.46335374 1.46601428 10.44062511 4.20123377 15.4765625 6.72705078 C16.74394191 7.35254201 18.01177451 7.9771157 19.2800293 8.60083008 C21.96168667 9.92273332 24.63926639 11.25245272 27.31396484 12.58837891 C30.80956461 14.33417107 34.31203547 16.0656241 37.8168335 17.79286194 C91.06104065 44.04228217 91.06104065 44.04228217 98.91015625 61.64892578 C99.4765625 63.66455078 99.4765625 63.66455078 98.4765625 66.66455078 C97.80286621 66.15520996 97.12916992 65.64586914 96.43505859 65.12109375 C90.208468 60.49145324 83.9521824 56.42286364 77.1015625 52.78955078 C76.05645508 52.23001709 75.01134766 51.6704834 73.93457031 51.09399414 C57.45666278 42.36058181 40.60269454 34.32932409 23.84060669 26.16027832 C20.61491137 24.5880423 17.39039727 23.01340453 14.16601562 21.43847656 C10.74814295 19.76927473 7.32603585 18.10989826 3.89648438 16.46484375 C2.63660585 15.85325986 1.37682852 15.24146744 0.1171875 14.62939453 C-0.90342773 14.13947021 -1.92404297 13.6495459 -2.97558594 13.14477539 C-5.6664432 11.5814688 -7.55387191 10.07326045 -9.5234375 7.66455078 C-9.4609375 4.53955078 -9.4609375 4.53955078 -8.5234375 1.66455078 C-5.22026484 -0.53756432 -3.83327645 -0.60548344 0 0 Z " fill="#CFA363" transform="translate(366.5234375,540.33544921875)"/>
<path d="M0 0 C2.4375 1.6875 2.4375 1.6875 4 4 C4.0625 6.5 4.0625 6.5 3 9 C-1.55149172 13.4471867 -7.33230727 15.63729638 -13.0625 18.1875 C-14.66943726 18.9136853 -14.66943726 18.9136853 -16.30883789 19.65454102 C-21.2485461 21.8839474 -26.19911324 24.08892537 -31.1484375 26.296875 C-69.98871784 42.858272 -69.98871784 42.858272 -105 66 C-106 63 -106 63 -105.171875 60.6875 C-92.57200516 36.8723614 -66.12799771 27.84843286 -43 17 C-42.35653625 16.69801697 -41.71307251 16.39603394 -41.05010986 16.0848999 C-32.38351863 12.02029273 -23.70439292 7.9831043 -15 4 C-14.11739502 3.59233398 -13.23479004 3.18466797 -12.32543945 2.76464844 C-11.528396 2.40145508 -10.73135254 2.03826172 -9.91015625 1.6640625 C-9.22832275 1.35162598 -8.54648926 1.03918945 -7.84399414 0.71728516 C-5.04326075 -0.37215675 -2.94511995 -0.54792929 0 0 Z " fill="#D1A564" transform="translate(672,540)"/>
<path d="M0 0 C7.66629823 7.9400946 9.27406115 19.55295479 9.24438477 30.12548828 C9.05105696 40.55508102 6.51702316 48.58397331 -1 56 C-9.67155618 62.81441009 -17.89065821 66.00019797 -29 65 C-35.2930426 63.69135506 -40.58169429 61.41588838 -46 58 C-46 57.34 -46 56.68 -46 56 C-45.28457031 55.81566406 -44.56914062 55.63132812 -43.83203125 55.44140625 C-28.42702833 50.95741446 -17.40102769 41.5779695 -9.15625 27.953125 C-4.60588611 19.34312274 -2.25214969 10.59981425 -1 1 C-0.67 0.67 -0.34 0.34 0 0 Z " fill="#CA9D57" transform="translate(457,624)"/>
<path d="M0 0 C6.89759406 2.90073238 11.05849088 8.74588801 14.328125 15.28515625 C15.65416657 22.65205387 15.00086551 30.05481286 13.890625 37.41015625 C3.29134992 37.040199 -6.63895266 35.22781325 -15.109375 28.41015625 C-19.95145298 23.03006961 -21.59089117 19.06209335 -21.421875 11.87890625 C-20.78656304 6.85994175 -18.07471002 4.26324301 -14.421875 1.03515625 C-9.46665394 -1.39570691 -5.30020188 -1.48209349 0 0 Z " fill="#EBC384" transform="translate(386.109375,318.58984375)"/>
<path d="M0 0 C7.3882999 7.11484585 9.04809049 17.91002362 9.375 27.75 C9.14082695 41.33203682 3.95749437 52.95544695 -5.25 62.8125 C-9.54580296 66.89786667 -14.24251302 70.3413862 -20 72 C-22.796875 71.6171875 -22.796875 71.6171875 -25 71 C-24.45856011 66.11962402 -22.8595087 62.38968724 -20.5625 58.125 C-10.92832066 39.37806743 -4.2318696 20.65869096 0 0 Z " fill="#3B6776" transform="translate(321,442)"/>
<path d="M0 0 C3.93792318 2.56821077 6.74612583 5.61725165 8.875 9.875 C9.11175113 14.92912198 8.36027501 18.85365449 5.125 22.8125 C1.50020636 26.53200321 -1.35376429 27.64539537 -6.5 28.3125 C-11.18485484 27.74708648 -13.78271054 26.1395618 -17.125 22.875 C-19.99248219 18.80502527 -20.77050189 15.02366427 -20.61328125 10.125 C-19.74195973 6.10995045 -17.23088074 3.44661227 -14.125 0.875 C-9.38778675 -1.91159603 -5.16053885 -1.85779399 0 0 Z " fill="#F7F3DB" transform="translate(503.125,648.125)"/>
<path d="M0 0 C4.31181954 2.05402368 7.24381057 4.49821865 9 9 C9.70439351 13.96351704 9.53310707 17.91404116 7.3125 22.4375 C3.66616794 26.47803012 1.0055627 28.15438768 -4.4375 28.4375 C-8.94494978 28.28000175 -11.53618069 26.96898798 -15 24 C-18.59168941 20.03971239 -18.50324212 16.86620863 -18.3515625 11.6953125 C-17.71639272 6.82567753 -15.43269627 4.22802537 -11.8125 1.125 C-7.77961221 -0.48815511 -4.27867968 -0.78991009 0 0 Z " fill="#E9C07E" transform="translate(292,240)"/>
<path d="M0 0 C3.31015748 2.12047332 6.22464779 4.44929557 8 8 C8.43011819 12.21019538 8.4699635 15.88692855 6.8125 19.8125 C3.04385592 24.36086354 -0.34329212 26.69345678 -6.25 27.375 C-10.91333176 26.90866682 -13.70857878 25.30010571 -17 22 C-19.77609099 17.59145684 -19.63804927 13.04856483 -19 8 C-17.22128603 4.23733583 -15.66862969 2.48203536 -12.3125 0.0625 C-7.89228603 -1.35530448 -4.43626229 -1.41468329 0 0 Z " fill="#ECC382" transform="translate(293,298)"/>
<path d="M0 0 C3.57711299 2.5061647 5.62533589 5.16153195 6.50390625 9.47265625 C6.70431312 13.75877734 6.2221888 16.52998524 4.375 20.4375 C0.77905065 24.31734009 -2.19914989 25.7708009 -7.4375 26.4375 C-12.76894972 25.78276056 -16.24912746 23.92031181 -19.9375 19.875 C-21.87706555 14.62676381 -21.91229641 9.25673324 -19.8125 4.0625 C-14.22906132 -2.29106815 -7.56348441 -3.03061897 0 0 Z " fill="#E9C582" transform="translate(731,791)"/>
<path d="M0 0 C4.40830916 2.16407904 7.12843553 4.42506462 9 9 C9.53218983 14.58799317 9.25015553 18.23310522 6 23 C1.7801376 26.91109198 -1.93659351 27.73379419 -7.5234375 27.53125 C-11.67789911 26.64007212 -14.30334368 24.18320899 -17 21 C-18.99765403 17.00469193 -18.64943255 12.33153639 -18 8 C-13.6790292 0.35520551 -8.37786068 -0.92658367 0 0 Z " fill="#ECC37D" transform="translate(292,355)"/>
<path d="M0 0 C3.71499374 0.61916562 4.67805398 1.5864641 7 4.5 C7.49219131 7.05368423 7.49219131 7.05368423 7.48101807 9.99224854 C7.48926605 11.66649902 7.48926605 11.66649902 7.49768066 13.37457275 C7.48329956 14.59448914 7.46891846 15.81440552 7.45410156 17.07128906 C7.45468567 18.35934448 7.45526978 19.6473999 7.45587158 20.9744873 C7.45701913 24.50328699 7.43350403 28.03154268 7.40557575 31.56021595 C7.38056847 35.24907993 7.37822064 38.93795642 7.37347412 42.62689209 C7.36104231 49.61090789 7.32821811 56.5946732 7.28807616 63.57857871 C7.24336469 71.53011718 7.22137302 79.48166761 7.20129442 87.4333005 C7.1594855 103.78901363 7.08912968 120.14447485 7 136.5 C6.67 136.5 6.34 136.5 6 136.5 C4.8928363 109.70443674 4.69447251 82.90273305 4.46777344 56.08807373 C4.41669907 50.14007197 4.36147102 44.19210874 4.30664062 38.24414062 C4.20046788 26.66279365 4.0987366 15.0814126 4 3.5 C1.08347826 3.33318891 1.08347826 3.33318891 -2 3.5 C-5.25868116 6.75868116 -4.85571858 11.04101696 -5 15.5 C-4.69737711 17.50487668 -4.37086181 19.50661779 -4 21.5 C-4.32634295 23.16804951 -4.66044489 24.83458977 -5 26.5 C-5.08440725 28.15403864 -5.12206456 29.81092737 -5.12025452 31.46711731 C-5.12162918 32.44161835 -5.12300385 33.41611938 -5.12442017 34.42015076 C-5.12082489 35.47750931 -5.11722961 36.53486786 -5.11352539 37.62426758 C-5.11367142 38.74665833 -5.11381744 39.86904907 -5.1139679 41.02545166 C-5.11327176 44.73183125 -5.10549328 48.43816045 -5.09765625 52.14453125 C-5.09579101 54.71571322 -5.09436761 57.28689555 -5.09336853 59.858078 C-5.08994173 65.93175941 -5.08206183 72.00542005 -5.07201904 78.07909364 C-5.06083146 84.99564138 -5.05534079 91.91218999 -5.05032361 98.82874453 C-5.0398785 113.05250604 -5.02229555 127.27625238 -5 141.5 C-5.66 141.5 -6.32 141.5 -7 141.5 C-7.09340824 123.70654386 -7.1639619 105.91315128 -7.20724869 88.11950302 C-7.22788101 79.8577429 -7.25601427 71.59613505 -7.30175781 63.33447266 C-7.34160524 56.13427036 -7.36742794 48.93417833 -7.37635398 41.73386884 C-7.38157234 37.92069428 -7.39385084 34.10783519 -7.42292023 30.29476166 C-7.45005655 26.70619968 -7.45844881 23.11808332 -7.45243073 19.52942848 C-7.45405706 17.58352097 -7.47558927 15.63766206 -7.49768066 13.69187927 C-7.48943268 11.95452263 -7.48943268 11.95452263 -7.48101807 10.18206787 C-7.48470524 9.17546993 -7.48839241 8.16887199 -7.49219131 7.13177109 C-6.65919292 2.67768782 -4.389817 0.73163617 0 0 Z " fill="#D8B57C" transform="translate(380,386.5)"/>
<path d="M0 0 C3.73634034 3.20257743 4.45881154 4.75430385 5 9.625 C4.45359433 14.90692144 2.34719945 17.76699491 -1.625 21.1875 C-5.45960968 22.66905374 -8.46370431 22.42972279 -12.375 21.25 C-15.61051706 19.13988018 -17.22894116 17.46908826 -19.375 14.25 C-20.10017392 9.74717589 -19.97500036 6.25714346 -17.625 2.3125 C-12.25019536 -2.61440426 -6.49514798 -3.36785451 0 0 Z " fill="#3C6D79" transform="translate(525.375,320.75)"/>
<path d="M0 0 C4.53197496 1.62731147 8.50489816 3.92330988 12.625 6.375 C13.35267578 6.80546631 14.08035156 7.23593262 14.83007812 7.67944336 C39.18111689 22.18111689 39.18111689 22.18111689 42 25 C42.07205511 26.68608966 42.08386068 28.37500659 42.0625 30.0625 C42.05347656 30.98160156 42.04445313 31.90070313 42.03515625 32.84765625 C42.02355469 33.55792969 42.01195312 34.26820313 42 35 C37.17127816 33.64328963 33.43452124 31.48316608 29.375 28.625 C22.24057905 23.7240986 14.88667043 19.25503086 7.43896484 14.84814453 C6.61605957 14.36071777 5.7931543 13.87329102 4.9453125 13.37109375 C4.20812988 12.93724365 3.47094727 12.50339355 2.71142578 12.05639648 C1 11 1 11 0 10 C-0.07205511 8.31391034 -0.08386068 6.62499341 -0.0625 4.9375 C-0.05347656 4.01839844 -0.04445313 3.09929687 -0.03515625 2.15234375 C-0.02355469 1.44207031 -0.01195312 0.73179687 0 0 Z " fill="#0A131E" transform="translate(453,403)"/>
<path d="M0 0 C1.12676631 3.67764004 1.28198398 6.34434256 0 10 C-4.21671549 13.56883472 -8.86411445 16.10540673 -13.70703125 18.73242188 C-17.39005755 20.76843897 -20.94006804 23.00780954 -24.5 25.25 C-25.16918457 25.66556152 -25.83836914 26.08112305 -26.52783203 26.50927734 C-30.09930965 28.74022039 -33.53332139 31.05540598 -36.875 33.625 C-40 36 -40 36 -42 36 C-42.19132627 34.463316 -42.32587537 32.91952045 -42.4375 31.375 C-42.51871094 30.51648438 -42.59992187 29.65796875 -42.68359375 28.7734375 C-40.97817871 21.85432504 -32.28445591 18.17353155 -26.539505 14.69372559 C-24.65357668 13.56285724 -22.76443003 12.43750599 -20.875 11.3125 C-19.59990007 10.54682374 -18.32515763 9.78055179 -17.05078125 9.01367188 C-13.70471429 7.00206614 -10.35279558 5.00037336 -7 3 C-6.08492676 2.42660889 -5.16985352 1.85321777 -4.22705078 1.26245117 C-2 0 -2 0 0 0 Z " fill="#0B151F" transform="translate(579,479)"/>
<path d="M0 0 C1.16960348 4.02098973 1.35878686 7.00537097 0 11 C-4.36895637 14.56626098 -9.25803312 16.90397882 -14.25097656 19.48535156 C-19.5097265 22.38280135 -24.44893581 25.79068485 -29.4375 29.125 C-31.4125539 30.44432155 -33.3902199 31.75974543 -35.37109375 33.0703125 C-36.21599365 33.63508301 -37.06089355 34.19985352 -37.93139648 34.78173828 C-40 36 -40 36 -42 36 C-42.71643011 32.46850611 -42.84704895 29.5200717 -42 26 C-38.95753513 22.47428009 -34.97442267 20.33708972 -31 18 C-29.388228 17.01741879 -27.77763186 16.0329072 -26.16796875 15.046875 C-21.97203781 12.49300096 -17.75303014 9.98139385 -13.51904297 7.49121094 C-9.973421 5.3922907 -6.45426451 3.25002146 -2.93579102 1.10595703 C-1 0 -1 0 0 0 Z " fill="#0A1623" transform="translate(579,453)"/>
<path d="M0 0 C0.52816999 3.13772098 0.68386268 5.87726299 0 9 C-2.38404157 11.67364818 -5.30920224 13.18397142 -8.4375 14.875 C-10.17790317 15.89052335 -11.91746879 16.90748327 -13.65625 17.92578125 C-14.98849609 18.6849585 -14.98849609 18.6849585 -16.34765625 19.45947266 C-20.4694985 21.85351027 -24.45005677 24.45280866 -28.4375 27.0625 C-29.1399585 27.51544434 -29.84241699 27.96838867 -30.56616211 28.43505859 C-33.23155327 30.15755252 -35.83220423 31.87073304 -38.34765625 33.80859375 C-40 35 -40 35 -42 35 C-42.19132627 33.463316 -42.32587537 31.91952045 -42.4375 30.375 C-42.51871094 29.51648438 -42.59992187 28.65796875 -42.68359375 27.7734375 C-41.25221221 21.96611812 -35.20869752 19.0485973 -30.3984375 16.03515625 C-28.72858954 15.03648605 -27.053939 14.04580983 -25.375 13.0625 C-24.49924316 12.54397461 -23.62348633 12.02544922 -22.72119141 11.49121094 C-3.20477108 0 -3.20477108 0 0 0 Z " fill="#0B1524" transform="translate(579,403)"/>
<path d="M0 0 C3.73677254 0.66435206 6.44841234 2.330267 9.65625 4.31640625 C11.31527344 5.34024414 11.31527344 5.34024414 13.0078125 6.38476562 C13.58305664 6.74352783 14.15830078 7.10229004 14.75097656 7.47192383 C16.46331311 8.53962446 18.18082591 9.59900931 19.8984375 10.65820312 C22.15223572 12.05446496 24.39936617 13.46154796 26.63964844 14.87939453 C28.9127049 16.31384443 31.1896819 17.71848483 33.49316406 19.10107422 C35.12850098 20.11645264 35.12850098 20.11645264 36.796875 21.15234375 C37.78010742 21.74909912 38.76333984 22.34585449 39.77636719 22.96069336 C42 25 42 25 42.74707031 27.92797852 C42.74973684 30.72405191 42.54374752 33.26112359 42 36 C41.37416016 35.59692627 40.74832031 35.19385254 40.10351562 34.77856445 C32.31108044 29.78697649 24.41983546 24.9726588 16.5 20.1875 C14.60723751 19.0430109 12.7147006 17.89815333 10.82263184 16.7525177 C9.12769562 15.72635943 7.4320336 14.70140027 5.73632812 13.67651367 C3.79977508 12.49001209 1.88969296 11.2597953 0 10 C-0.29296875 7.6171875 -0.29296875 7.6171875 -0.1875 4.875 C-0.16042969 3.96492188 -0.13335937 3.05484375 -0.10546875 2.1171875 C-0.07066406 1.41851562 -0.03585937 0.71984375 0 0 Z " fill="#0B1422" transform="translate(453,480)"/>
<path d="M0 0 C1.12562623 3.67391896 1.26548071 6.34416684 0 10 C-4.12558969 13.56198454 -8.71973816 16.03880676 -13.5 18.62451172 C-17.99424806 21.09722594 -22.35985715 23.7858923 -26.75 26.4375 C-27.6069043 26.94587402 -28.46380859 27.45424805 -29.34667969 27.97802734 C-30.15524414 28.45836426 -30.96380859 28.93870117 -31.796875 29.43359375 C-32.51198242 29.85697021 -33.22708984 30.28034668 -33.96386719 30.71655273 C-36.06483209 31.99448888 -36.06483209 31.99448888 -38.13769531 33.66040039 C-40 35 -40 35 -42 35 C-43.04778474 31.35215682 -43.17304998 28.63395908 -42 25 C-38.19516283 21.43754505 -33.91028753 18.95102988 -29.39746094 16.37548828 C-26.81453429 14.8935933 -24.26994137 13.35732154 -21.7265625 11.80859375 C-17.51348225 9.24786675 -13.28496401 6.71569409 -9.03808594 4.21142578 C-7.35876711 3.21324897 -5.6964303 2.18655875 -4.0390625 1.15234375 C-2 0 -2 0 0 0 Z " fill="#0A161F" transform="translate(579,428)"/>
<path d="M0 0 C5.61768337 1.51417622 9.98985425 4.30122838 14.8125 7.4375 C16.49175071 8.52801664 18.17144854 9.61784505 19.8515625 10.70703125 C21.12628418 11.53388428 21.12628418 11.53388428 22.42675781 12.37744141 C24.92393355 13.95203628 27.45640051 15.42943781 30.0234375 16.88671875 C30.80871826 17.34828369 31.59399902 17.80984863 32.40307617 18.28540039 C33.89191471 19.15846409 35.39711489 20.00437731 36.91918945 20.81811523 C39.0209599 22.08221072 40.49579738 23.05714292 42 25 C42.59760522 28.41879715 42.44133446 31.56907512 42 35 C38.58777805 33.71971239 35.56792296 32.24484729 32.48046875 30.3125 C31.6299292 29.78374268 30.77938965 29.25498535 29.90307617 28.71020508 C28.06506543 27.55266977 26.22801512 26.39360824 24.3918457 25.2331543 C20.0019572 22.46527827 15.62175967 19.75090647 11.0625 17.26953125 C0.48422311 11.40251076 0.48422311 11.40251076 -0.98046875 7.16015625 C-0.99868478 4.56255024 -0.75872444 2.47639225 0 0 Z " fill="#091424" transform="translate(453,429)"/>
<path d="M0 0 C3.55725889 0.55747798 6.06717321 1.41294509 9.08203125 3.37109375 C10.22200562 4.10223389 10.22200562 4.10223389 11.38500977 4.84814453 C12.18608154 5.37263184 12.98715332 5.89711914 13.8125 6.4375 C15.50487532 7.5278608 17.19758983 8.61769529 18.890625 9.70703125 C19.74076172 10.25697754 20.59089844 10.80692383 21.46679688 11.37353516 C25.97368984 14.26722453 30.53614986 17.07211699 35.09887695 19.87670898 C37.62691664 21.44491705 39.88844571 22.88844571 42 25 C42.1953125 27.1640625 42.1953125 27.1640625 42.125 29.625 C42.10695313 30.44226563 42.08890625 31.25953125 42.0703125 32.1015625 C42.04710937 32.72804688 42.02390625 33.35453125 42 34 C36.89872547 32.56158207 32.95525286 30.29167994 28.5625 27.4375 C27.15188717 26.53643541 25.74040648 25.63672822 24.328125 24.73828125 C23.61333984 24.28275879 22.89855469 23.82723633 22.16210938 23.35791016 C18.14624156 20.83574928 14.05681257 18.43465095 9.96118164 16.04467773 C6.4006373 13.94006649 2.97008667 11.89250978 0 9 C-0.48828125 6.640625 -0.48828125 6.640625 -0.3125 4.25 C-0.26738281 3.45078125 -0.22226562 2.6515625 -0.17578125 1.828125 C-0.11777344 1.22484375 -0.05976563 0.6215625 0 0 Z " fill="#0C1521" transform="translate(453,455)"/>
<path d="M0 0 C0.66 0.33 1.32 0.66 2 1 C2 46.21 2 91.42 2 138 C-0.97 138.99 -0.97 138.99 -4 140 C-4 139.34 -4 138.68 -4 138 C-2.68 137.67 -1.36 137.34 0 137 C-0.01252808 136.34744736 -0.02505615 135.69489471 -0.03796387 135.02256775 C-0.89795594 89.97755768 -1.39626102 45.04055813 0 0 Z " fill="#EFD49E" transform="translate(629,377)"/>
<path d="M0 0 C0.66 0 1.32 0 2 0 C1.42655063 2.86724686 1.1385485 3.8614515 -1 6 C-1.31501055 8.47519602 -1.31501055 8.47519602 -1.2784729 11.40359497 C-1.28963638 12.55066925 -1.30079987 13.69774353 -1.31230164 14.87957764 C-1.31446182 16.14408752 -1.31662201 17.40859741 -1.31884766 18.71142578 C-1.32814218 20.05161141 -1.33831014 21.39179122 -1.34928894 22.73196411 C-1.37665686 26.37634519 -1.39175834 30.02068747 -1.40471697 33.66514444 C-1.42031792 37.47154106 -1.44711774 41.27785808 -1.4727478 45.084198 C-1.51958953 52.29479248 -1.55630745 59.50540184 -1.58942068 66.71607101 C-1.62760405 74.92399094 -1.67702406 83.13183105 -1.72740483 91.33968377 C-1.83080486 108.22639816 -1.92003892 125.1131587 -2 142 C-2.66 142 -3.32 142 -4 142 C-4.0934402 124.22381465 -4.1639776 106.44769304 -4.20724869 88.67131519 C-4.22787422 80.41743066 -4.25599453 72.16369871 -4.30175781 63.90991211 C-4.341626 56.71592615 -4.36743288 49.5220507 -4.37635398 42.32795733 C-4.38156881 38.51866297 -4.39382497 34.70968475 -4.42292023 30.90049171 C-4.45008932 27.31438888 -4.45844216 23.72873214 -4.45243073 20.14253616 C-4.45405425 18.20039936 -4.47556933 16.25831105 -4.49768066 14.31629944 C-4.49218201 13.15668701 -4.48668335 11.99707458 -4.48101807 10.80232239 C-4.48470524 9.79664624 -4.48839241 8.7909701 -4.49219131 7.75481892 C-3.86405363 4.23910149 -2.47575089 2.52588014 0 0 Z " fill="#D5BF91" transform="translate(405,373)"/>
<path d="M0 0 C0.33 0 0.66 0 1 0 C1.11672029 17.81070287 1.20493253 35.6213067 1.25906086 53.43230915 C1.28485989 61.70199163 1.32004249 69.97143669 1.37719727 78.2409668 C1.42698068 85.44738599 1.45927866 92.65363329 1.47044247 99.86021966 C1.47696996 103.67735232 1.49234556 107.49399314 1.52865028 111.3109684 C1.56253051 114.90205561 1.57306957 118.49244735 1.56553841 122.0836792 C1.56757487 124.03338986 1.59451191 125.98302437 1.62210083 127.93254089 C1.61522751 129.08940399 1.60835419 130.24626709 1.60127258 131.43818665 C1.60818603 132.94946624 1.60818603 132.94946624 1.61523914 134.49127674 C1 137 1 137 -1.41257954 138.84761333 C-4 140 -4 140 -6 140 C-5.67 139.01 -5.34 138.02 -5 137 C-4.01 136.67 -3.02 136.34 -2 136 C-1.99576806 135.30516793 -1.99153612 134.61033587 -1.98717594 133.89444828 C-1.88400999 117.01171542 -1.77539363 100.12902741 -1.66066074 83.24636936 C-1.60530986 75.08214838 -1.55182486 66.91792303 -1.50268555 58.75366211 C-1.45986649 51.64025973 -1.41359435 44.52688978 -1.36312145 37.41353744 C-1.33650208 33.64476181 -1.31164864 29.87599269 -1.29092598 26.10717964 C-1.26776567 21.90677217 -1.23689831 17.70645615 -1.20532227 13.50610352 C-1.1995668 12.24734909 -1.19381134 10.98859467 -1.18788147 9.69169617 C-1.17809265 8.55441071 -1.16830383 7.41712524 -1.15821838 6.24537659 C-1.15176583 5.25076196 -1.14531328 4.25614733 -1.1386652 3.23139286 C-1 1 -1 1 0 0 Z " fill="#DCC497" transform="translate(612,377)"/>
<path d="M0 0 C-1.72210153 1.14806769 -3.45934089 2.27544392 -5.234375 3.33984375 C-15.45862689 9.83319627 -21.01212176 19.36829051 -24 31 C-24.43828661 35.58147527 -24.38420792 40.09087876 -24.25 44.6875 C-24.23195313 45.87794922 -24.21390625 47.06839844 -24.1953125 48.29492188 C-24.14868489 51.19749031 -24.08326281 54.09829111 -24 57 C-26.21312879 53.68030681 -26.25632983 52.60673116 -26.265625 48.73828125 C-26.26820313 47.70123047 -26.27078125 46.66417969 -26.2734375 45.59570312 C-26.26570313 44.51224609 -26.25796875 43.42878906 -26.25 42.3125 C-26.25773437 41.24837891 -26.26546875 40.18425781 -26.2734375 39.08789062 C-26.25849277 33.039013 -25.76460209 27.7909759 -24 22 C-25.32 22 -26.64 22 -28 22 C-28.33 23.65 -28.66 25.3 -29 27 C-29.68359375 25.33203125 -29.68359375 25.33203125 -30 23 C-25.25123395 12.48832465 -17.47443683 5.9120353 -7.39453125 0.84765625 C-4.78121755 -0.07744827 -2.751455 -0.16127534 0 0 Z " fill="#DFC086" transform="translate(389,599)"/>
<path d="M0 0 C0.33 0.99 0.66 1.98 1 3 C-0.45287661 4.33927721 -1.91247259 5.67126847 -3.375 7 C-4.59316406 8.11375 -4.59316406 8.11375 -5.8359375 9.25 C-8 11 -8 11 -10 11 C-10 11.66 -10 12.32 -10 13 C-10.99 13.495 -10.99 13.495 -12 14 C-12 14.66 -12 15.32 -12 16 C-10.02 16 -8.04 16 -6 16 C-6 15.34 -6 14.68 -6 14 C-4 12 -4 12 -1.375 11.875 C-0.59125 11.91625 0.1925 11.9575 1 12 C1 11.34 1 10.68 1 10 C2.65 10 4.3 10 6 10 C1.84472253 13.31156631 -2.74651471 15.85655232 -7.3359375 18.5078125 C-11.58762323 21.01082103 -15.28744841 23.74720712 -19 27 C-20 24 -20 24 -19.171875 21.6875 C-14.54283152 12.93809914 -8.29678549 5.53119033 0 0 Z " fill="#BF9964" transform="translate(586,579)"/>
<path d="M0 0 C0.33 0 0.66 0 1 0 C1.04254356 1.99954746 1.04080783 4.00041636 1 6 C0.67 6.33 0.34 6.66 0 7 C-1.14978637 18.19959849 -1.19464898 29.50228572 -1.31640625 40.75 C-1.33705059 42.38623488 -1.35804854 44.02246533 -1.37937927 45.65869141 C-1.43382977 49.90649767 -1.48356911 54.15434564 -1.53222656 58.40222168 C-1.58301465 62.76037177 -1.63839743 67.11846341 -1.69335938 71.4765625 C-1.79999453 79.98432518 -1.90163793 88.49213766 -2 97 C-2.33 97 -2.66 97 -3 97 C-3.04646699 85.95971783 -3.08194197 74.91945917 -3.10362434 63.87909889 C-3.11403402 58.7518835 -3.12814153 53.62473532 -3.15087891 48.49755859 C-3.17270803 43.54384074 -3.18458978 38.59018729 -3.18975449 33.63642502 C-3.19343223 31.75232302 -3.20061368 29.8682243 -3.21146011 27.98414993 C-3.31397422 9.42863226 -3.31397422 9.42863226 -1 1 C-0.67 0.67 -0.34 0.34 0 0 Z " fill="#111411" transform="translate(332,585)"/>
<path d="M0 0 C4.52353836 5.55161526 5.28899955 10.25421161 5.125 17.3125 C5.11597656 18.05306641 5.10695313 18.79363281 5.09765625 19.55664062 C5.07424213 21.37123467 5.03837615 23.18566071 5 25 C2.7587995 22.10985487 0.80959749 19.14091037 -1.0625 16 C-1.56910156 15.154375 -2.07570313 14.30875 -2.59765625 13.4375 C-3.81457961 11.32229059 -4.93762621 9.19591138 -6 7 C-5.34 7 -4.68 7 -4 7 C-4 7.66 -4 8.32 -4 9 C-3.34 9 -2.68 9 -2 9 C-1.34 6.03 -0.68 3.06 0 0 Z " fill="#DBB780" transform="translate(503,567)"/>
<path d="M0 0 C0.66 0.33 1.32 0.66 2 1 C1.51322375 1.41239079 1.02644751 1.82478159 0.52492046 2.24966908 C-1.31361006 4.35996723 -1.3807072 5.24820182 -1.39872742 8.0052948 C-1.41126556 8.81717758 -1.42380371 9.62906036 -1.4367218 10.46554565 C-1.43528671 11.35243073 -1.43385162 12.2393158 -1.43237305 13.15307617 C-1.4425647 14.08985703 -1.45275635 15.02663788 -1.46325684 15.99180603 C-1.49348276 19.09225368 -1.50266749 22.19239288 -1.51171875 25.29296875 C-1.52855831 27.44103531 -1.54670756 29.58909196 -1.56611633 31.73713684 C-1.61370091 37.39404203 -1.6434556 43.0509071 -1.66955566 48.70794678 C-1.69931852 54.4792066 -1.74586349 60.25032806 -1.79101562 66.02148438 C-1.87714499 77.347584 -1.94444742 88.67371203 -2 100 C-2.33 100 -2.66 100 -3 100 C-3 67.33 -3 34.66 -3 1 C-2.01 0.67 -1.02 0.34 0 0 Z " fill="#D9B477" transform="translate(649,388)"/>
<path d="M0 0 C0 4.00886968 -1.79016755 5.71873364 -4 9 C-4.76939681 11.22602615 -4.76939681 11.22602615 -5 13 C-5.66 13 -6.32 13 -7 13 C-6.34 14.32 -5.68 15.64 -5 17 C-3.68 16.67 -2.36 16.34 -1 16 C-1.93614567 17.72990025 -2.87397958 19.45888696 -3.8125 21.1875 C-4.33457031 22.15042969 -4.85664062 23.11335937 -5.39453125 24.10546875 C-6.87634574 26.77706129 -8.35664063 29.42430493 -10 32 C-10.33 32 -10.66 32 -11 32 C-11.67049793 20.32836939 -8.62507035 11.59620218 -2 2 C-1.34 1.34 -0.68 0.68 0 0 Z " fill="#D8B985" transform="translate(534,559)"/>
<path d="M0 0 C0.65870087 -0.00191345 1.31740173 -0.0038269 1.99606323 -0.00579834 C3.38963198 -0.00715665 4.78321353 -0.00348489 6.17675781 0.00488281 C8.27699399 0.0154852 10.37635461 0.00502979 12.4765625 -0.0078125 C19.91874126 -0.01443778 26.95754341 0.36540249 34.1796875 2.265625 C33.51726961 5.81642359 32.60486979 8.94019966 31.1796875 12.265625 C30.5196875 12.265625 29.8596875 12.265625 29.1796875 12.265625 C29.1796875 10.945625 29.1796875 9.625625 29.1796875 8.265625 C29.8396875 8.265625 30.4996875 8.265625 31.1796875 8.265625 C31.5096875 6.615625 31.8396875 4.965625 32.1796875 3.265625 C17.9896875 2.935625 3.7996875 2.605625 -10.8203125 2.265625 C-6.59162765 0.15128258 -4.6326316 0.00860741 0 0 Z " fill="#DFC38C" transform="translate(613.8203125,714.734375)"/>
<path d="M0 0 C3.46519858 1.43905974 3.93067953 1.86383479 5.75 5.4375 C7 9 7 9 7 12 C7.66 12 8.32 12 9 12 C9 12.66 9 13.32 9 14 C9.66 14.33 10.32 14.66 11 15 C10.67 15.99 10.34 16.98 10 18 C10.66 18.33 11.32 18.66 12 19 C12.0270203 21.75006608 12.04684883 24.49986546 12.0625 27.25 C12.07087891 28.02730469 12.07925781 28.80460938 12.08789062 29.60546875 C12.09111328 30.35957031 12.09433594 31.11367188 12.09765625 31.890625 C12.10289307 32.58188477 12.10812988 33.27314453 12.11352539 33.98535156 C11.99437971 36.09973898 11.57618237 37.96641515 11 40 C11.886875 39.505 12.77375 39.01 13.6875 38.5 C16.87586238 37.05621326 18.58187546 36.69840078 22 37 C19.65085508 39.34914492 18.04320554 39.73140357 14.875 40.625 C13.50988281 41.01558594 13.50988281 41.01558594 12.1171875 41.4140625 C11.41851562 41.60742188 10.71984375 41.80078125 10 42 C9.96261719 40.99582031 9.92523438 39.99164062 9.88671875 38.95703125 C9.24879724 24.6679408 6.48322262 12.81957611 0 0 Z " fill="#A17C4E" transform="translate(474,588)"/>
<path d="M0 0 C1.125 1.5 1.125 1.5 2 4 C1.57598348 6.7773082 0.81108065 9.29639783 0 12 C0.68707031 12.06058594 1.37414062 12.12117187 2.08203125 12.18359375 C3.43361328 12.30927734 3.43361328 12.30927734 4.8125 12.4375 C5.70582031 12.51871094 6.59914063 12.59992187 7.51953125 12.68359375 C10 13 10 13 13 14 C14.14814997 11.70370006 14.30769809 9.92301914 14.5625 7.375 C14.64628906 6.55773437 14.73007812 5.74046875 14.81640625 4.8984375 C14.90728516 3.95871094 14.90728516 3.95871094 15 3 C15.66 3 16.32 3 17 3 C17 8.61 17 14.22 17 20 C10.73 17.69 4.46 15.38 -2 13 C-1 4 -1 4 0 0 Z " fill="#8E6F48" transform="translate(531,611)"/>
<path d="M0 0 C0.33 0 0.66 0 1 0 C2.6089686 8.2106877 3.3225763 16.07632193 3.25 24.4375 C3.24613281 25.52409912 3.24226562 26.61069824 3.23828125 27.73022461 C3.1565503 35.3136079 2.65272643 42.57748754 1 50 C0.67 50 0.34 50 0 50 C0.33 35.81 0.66 21.62 1 7 C0.34 7 -0.32 7 -1 7 C-0.67 4.69 -0.34 2.38 0 0 Z " fill="#CAB386" transform="translate(726,376)"/>
<path d="M0 0 C0.56976563 0.71414063 1.13953125 1.42828125 1.7265625 2.1640625 C7.3713228 9.20546453 13.08931377 16.17997743 19 23 C14.78345644 21.51364884 11.37521395 19.38750841 7.6875 16.875 C6.61886719 16.15054688 5.55023438 15.42609375 4.44921875 14.6796875 C3.64097656 14.12539063 2.83273437 13.57109375 2 13 C2.99 12.01 3.98 11.02 5 10 C4.505 9.38125 4.01 8.7625 3.5 8.125 C2 6 2 6 2 4 C1.34 4 0.68 4 0 4 C0 2.68 0 1.36 0 0 Z " fill="#D5B99A" transform="translate(349,735)"/>
<path d="M0 0 C0.66 0.66 1.32 1.32 2 2 C1.52691406 2.32871094 1.05382812 2.65742187 0.56640625 2.99609375 C-4.51095187 6.64822854 -8.8175173 10.70281443 -13.1171875 15.2421875 C-15 17 -15 17 -17 17 C-17.25523437 17.55171875 -17.51046875 18.1034375 -17.7734375 18.671875 C-19.19302074 21.36637058 -20.86132254 23.76778728 -22.625 26.25 C-23.25664063 27.14203125 -23.88828125 28.0340625 -24.5390625 28.953125 C-25.02117188 29.62859375 -25.50328125 30.3040625 -26 31 C-26.33 30.34 -26.66 29.68 -27 29 C-20.05282425 17.39206077 -10.84426611 7.99794029 0 0 Z " fill="#161918" transform="translate(554,555)"/>
<path d="M0 0 C4.78642607 0.5746621 8.53788787 1.98245643 12.875 4.0625 C14.60363281 4.88427734 14.60363281 4.88427734 16.3671875 5.72265625 C17.67042969 6.35494141 17.67042969 6.35494141 19 7 C17.35 8.65 15.7 10.3 14 12 C9.21586287 8.46653832 4.47785614 4.91812412 0 1 C0 0.67 0 0.34 0 0 Z " fill="#DEBF89" transform="translate(616,250)"/>
<path d="M0 0 C0.609375 1.82421875 0.609375 1.82421875 1 4 C-0.26987969 6.04087808 -1.61382611 8.03625365 -3 10 C-4.90762513 14.02720861 -6.15228949 17.65548366 -7 22 C-7.9339386 24.69580116 -8.96341335 27.3409299 -10 30 C-10.33 30 -10.66 30 -11 30 C-12.08196743 18.7475387 -5.90343146 9.16959114 0 0 Z " fill="#AF8D5D" transform="translate(543,585)"/>
<path d="M0 0 C3.48670834 1.1094072 6.77484237 2.26337666 10 4 C10 4.66 10 5.32 10 6 C11.65 6 13.3 6 15 6 C14.34 4.02 13.68 2.04 13 0 C16.70722086 3.19588005 18.40645479 6.38710598 20 11 C19.67 11.99 19.34 12.98 19 14 C18.29875 13.48050781 17.5975 12.96101562 16.875 12.42578125 C12.43383412 9.16128296 8.01945377 5.93568543 3.3125 3.0625 C2.219375 2.381875 1.12625 1.70125 0 1 C0 0.67 0 0.34 0 0 Z " fill="#BA9A6C" transform="translate(446,593)"/>
<path d="M0 0 C0.66 0.33 1.32 0.66 2 1 C0.35 4.63 -1.3 8.26 -3 12 C-3.66 10.68 -4.32 9.36 -5 8 C-5.99 8 -6.98 8 -8 8 C-8.28875 8.61875 -8.5775 9.2375 -8.875 9.875 C-10 12 -10 12 -12 14 C-12.99 13.34 -13.98 12.68 -15 12 C-10.19200621 7.66656144 -5.33522342 3.6679661 0 0 Z " fill="#D2B88A" transform="translate(335,574)"/>
<path d="M0 0 C1.0003125 0.16371094 2.000625 0.32742188 3.03125 0.49609375 C9.81890654 1.34455082 16.67233208 1.10499253 23.5 1.0625 C24.90885258 1.05747533 26.31770689 1.05291413 27.7265625 1.04882812 C31.15108638 1.0371003 34.57552047 1.02068691 38 1 C37.67 1.66 37.34 2.32 37 3 C32.05208706 3.0246826 27.1042098 3.04285166 22.15625 3.05493164 C20.47232438 3.05996653 18.78840314 3.06679481 17.10449219 3.07543945 C14.68683797 3.08754196 12.26924144 3.09323668 9.8515625 3.09765625 C9.0963028 3.10281754 8.34104309 3.10797882 7.56289673 3.11329651 C2.22774341 3.11387171 2.22774341 3.11387171 0 2 C0 1.34 0 0.68 0 0 Z " fill="#DABC88" transform="translate(431,710)"/>
<path d="M0 0 C-0.66 1.32 -1.32 2.64 -2 4 C-2.66 4 -3.32 4 -4 4 C-4.20625 4.70125 -4.4125 5.4025 -4.625 6.125 C-6.09485417 9.19833145 -7.94439965 10.87485569 -10.40234375 13.17578125 C-13.41934386 16.62062001 -15.14558371 20.8480768 -17 25 C-17.66 24.67 -18.32 24.34 -19 24 C-16.21288916 17.54342665 -8.06801042 0 0 0 Z " fill="#141615" transform="translate(570,575)"/>
<path d="M0 0 C0 0.99 0 1.98 0 3 C-3.6678852 4.96189209 -6.87248551 6.39301257 -11 7 C-11 7.66 -11 8.32 -11 9 C-11.59167969 9.31453125 -12.18335938 9.6290625 -12.79296875 9.953125 C-17.18648236 12.33264624 -21.21154795 14.70038047 -25 18 C-24.90234375 16.27734375 -24.90234375 16.27734375 -24 14 C-21.87225605 12.34574567 -19.85246015 10.95106752 -17.5625 9.5625 C-16.93520996 9.17070557 -16.30791992 8.77891113 -15.66162109 8.37524414 C-10.60062753 5.25775983 -5.40482233 2.47824803 0 0 Z " fill="#131414" transform="translate(596,558)"/>
<path d="M0 0 C2.3046875 1.53125 2.3046875 1.53125 4 3 C1 3 1 3 -1.55859375 2.7890625 C-4.47138304 2.62306908 -7.11251847 2.56078971 -10 3 C-12.51428222 5.81177857 -12.51428222 5.81177857 -14 9 C-16.25 9.875 -16.25 9.875 -18 10 C-16.88545098 6.09907842 -15.13845141 3.46678349 -11.9140625 0.94921875 C-8.17629956 -0.90440654 -4.03132375 -0.79828193 0 0 Z " fill="#CDB484" transform="translate(292,355)"/>
<path d="M0 0 C-4.61534219 4.06478107 -9.25585812 8.08608295 -14 12 C-14 10.68 -14 9.36 -14 8 C-13.34 8 -12.68 8 -12 8 C-11.79375 6.88625 -11.5875 5.7725 -11.375 4.625 C-10 1 -10 1 -7.125 -0.5 C-4.14964761 -0.97605638 -2.79501021 -0.82277357 0 0 Z " fill="#5D7674" transform="translate(563,729)"/>
<path d="M0 0 C5.65646495 5.85848156 8.25 13.63764605 8.25 21.6875 C8.18735707 23.12605016 8.11210314 24.56445704 8 26 C7.67 26 7.34 26 7 26 C6.67 22.37 6.34 18.74 6 15 C5.34 15 4.68 15 4 15 C3.34 12.36 2.68 9.72 2 7 C1.34 7 0.68 7 0 7 C0 4.69 0 2.38 0 0 Z " fill="#CAAF78" transform="translate(457,624)"/>
<path d="M0 0 C0 0.66 0 1.32 0 2 C-0.61488281 2.26554688 -1.22976563 2.53109375 -1.86328125 2.8046875 C-2.67152344 3.15789063 -3.47976563 3.51109375 -4.3125 3.875 C-5.11300781 4.22304688 -5.91351562 4.57109375 -6.73828125 4.9296875 C-9.1961834 6.02571894 -9.1961834 6.02571894 -12 8 C-12.99 8 -13.98 8 -15 8 C-15 8.66 -15 9.32 -15 10 C-16.32 10 -17.64 10 -19 10 C-19 10.66 -19 11.32 -19 12 C-22.47307692 14.10865385 -22.47307692 14.10865385 -25.140625 13.55859375 C-26.06101562 13.28208984 -26.06101562 13.28208984 -27 13 C-23.47895964 11.14338238 -19.95516463 9.29211667 -16.42871094 7.44580078 C-15.22904458 6.81673913 -14.03014591 6.18621123 -12.83203125 5.55419922 C-11.11139422 4.64687655 -9.38776861 3.74522848 -7.6640625 2.84375 C-6.62717285 2.29912109 -5.5902832 1.75449219 -4.52197266 1.19335938 C-2 0 -2 0 0 0 Z " fill="#C2A572" transform="translate(607,541)"/>
<path d="M0 0 C0.66 0.99 1.32 1.98 2 3 C0.453125 3.5878125 0.453125 3.5878125 -1.125 4.1875 C-5.00857231 5.8440741 -7.81580575 8.22229863 -11 11 C-14.56137709 13.54384078 -17.86886595 15.54195269 -22 17 C-18.55015206 13.41063615 -15.01089555 10.35247603 -11 7.375 C-9.989375 6.61960937 -8.97875 5.86421875 -7.9375 5.0859375 C-5.35183459 3.24983998 -2.74495069 1.58440169 0 0 Z " fill="#BA9F6F" transform="translate(577,556)"/>
<path d="M0 0 C0.66 0.33 1.32 0.66 2 1 C2.33 9.58 2.66 18.16 3 27 C1.02 27.99 1.02 27.99 -1 29 C-0.83628906 27.73285156 -0.67257812 26.46570313 -0.50390625 25.16015625 C0.07978908 19.90689827 0.11285949 14.71749915 0.0625 9.4375 C0.05798828 8.52419922 0.05347656 7.61089844 0.04882812 6.66992188 C0.0371874 4.44654262 0.02083851 2.22330879 0 0 Z " fill="#111814" transform="translate(465,640)"/>
<path d="M0 0 C1.77074917 -0.02705729 3.54161711 -0.04642195 5.3125 -0.0625 C6.29863281 -0.07410156 7.28476562 -0.08570313 8.30078125 -0.09765625 C11 0 11 0 14 1 C15.33363703 1.14403348 16.67218046 1.24590423 18.01171875 1.31640625 C19.14770508 1.37924805 19.14770508 1.37924805 20.30664062 1.44335938 C21.48516602 1.50233398 21.48516602 1.50233398 22.6875 1.5625 C23.88342773 1.62727539 23.88342773 1.62727539 25.10351562 1.69335938 C27.06881447 1.79927368 29.03438496 1.90012551 31 2 C31 2.33 31 2.66 31 3 C27.70841135 3.05905417 24.41696244 3.09394375 21.125 3.125 C20.2071875 3.14175781 19.289375 3.15851562 18.34375 3.17578125 C11.99187394 3.22051277 6.17389964 2.48851563 0 1 C0 0.67 0 0.34 0 0 Z " fill="#BAA176" transform="translate(442,731)"/>
<path d="M0 0 C4.27131965 6.40697948 5.42104151 13.42125279 5 21 C3.02 21.33 1.04 21.66 -1 22 C-0.67 21.34 -0.34 20.68 0 20 C0.99 20 1.98 20 3 20 C2.55325707 16.35159938 1.98969446 12.96544613 0.9375 9.4375 C0.02948308 6.10810461 -0.16721405 3.42788808 0 0 Z " fill="#8C6C49" transform="translate(497,603)"/>
<path d="M0 0 C0.53625 0.226875 1.0725 0.45375 1.625 0.6875 C1.295 1.326875 0.965 1.96625 0.625 2.625 C-0.44771225 4.45544567 -0.44771225 4.45544567 -0.375 5.6875 C-4.335 5.6875 -8.295 5.6875 -12.375 5.6875 C-4.07649254 -0.5363806 -4.07649254 -0.5363806 0 0 Z " fill="#ECEBDD" transform="translate(612.375,691.3125)"/>
<path d="M0 0 C0.33 0.66 0.66 1.32 1 2 C-0.7792514 6.21401647 -3.06649182 9.51645904 -6 13 C-6.53625 13.763125 -7.0725 14.52625 -7.625 15.3125 C-8.305625 16.1478125 -8.305625 16.1478125 -9 17 C-9.66 17 -10.32 17 -11 17 C-9.52869627 12.6426774 -7.16919385 9.28065866 -4.375 5.6875 C-3.95476563 5.13771484 -3.53453125 4.58792969 -3.1015625 4.02148438 C-2.07279961 2.67707832 -1.0370991 1.33798587 0 0 Z " fill="#D6B986" transform="translate(709,681)"/>
<path d="M0 0 C3.82276318 3.53837077 6.40228669 6.98320474 8.875 11.5625 C9.79925781 13.23505859 9.79925781 13.23505859 10.7421875 14.94140625 C12 18 12 18 11.6953125 20.40234375 C11.46585937 20.92957031 11.23640625 21.45679688 11 22 C10.67 20.35 10.34 18.7 10 17 C9.01 17 8.02 17 7 17 C7.33 15.68 7.66 14.36 8 13 C7.34 13 6.68 13 6 13 C6 11.68 6 10.36 6 9 C5.34 9 4.68 9 4 9 C0 2.25 0 2.25 0 0 Z " fill="#B49162" transform="translate(485,583)"/>
<path d="M0 0 C0.66 0 1.32 0 2 0 C1.43999183 3.47205066 0.4463754 4.80483615 -2.3125 6.9375 C-4.6609304 8.82969137 -6.33992191 10.42490239 -8.25 12.8125 C-10 15 -10 15 -13 16 C-11.48099978 12.3758636 -9.31929546 10.142376 -6.5 7.4375 C-3.97190847 5.0038015 -1.95327066 2.92990599 0 0 Z " fill="#0E1313" transform="translate(631,748)"/>
<path d="M0 0 C4.30147542 -0.35845629 5.63871937 0.47471541 9 3 C12.02134658 4.55038241 15.06218104 6.02981132 18.13085938 7.48242188 C22.89602025 9.79204051 22.89602025 9.79204051 24 12 C18.54406329 10.39323547 13.6697853 7.94969106 8.625 5.375 C7.79355469 4.95476563 6.96210938 4.53453125 6.10546875 4.1015625 C4.06843641 3.07133925 2.03337811 2.03741179 0 1 C0 0.67 0 0.34 0 0 Z " fill="#C1A373" transform="translate(414,577)"/>
<path d="M0 0 C-3 2 -3 2 -5 3 C-2.04622502 5.36980013 -2.04622502 5.36980013 2 5 C1.67 5.99 1.34 6.98 1 8 C-0.65087847 7.40975852 -2.29562407 6.80233994 -3.9375 6.1875 C-4.85402344 5.85105469 -5.77054687 5.51460937 -6.71484375 5.16796875 C-9 4 -9 4 -10 1 C-3.375 -1.125 -3.375 -1.125 0 0 Z " fill="#AD8D5D" transform="translate(421,679)"/>
<path d="M0 0 C1.24318454 3.72955362 0.62220112 4.51226759 -1 8 C-1.45375 9.010625 -1.9075 10.02125 -2.375 11.0625 C-3.96144344 13.93030161 -5.5737604 15.8247507 -8 18 C-8.66 17.67 -9.32 17.34 -10 17 C-9.44570313 16.10796875 -8.89140625 15.2159375 -8.3203125 14.296875 C-7.58845201 13.11463883 -6.85668616 11.93234407 -6.125 10.75 C-5.57779297 9.87021484 -5.57779297 9.87021484 -5.01953125 8.97265625 C-3.20714706 6.0398891 -1.46799733 3.12142589 0 0 Z " fill="#161918" transform="translate(767,661)"/>
<path d="M0 0 C0.33 0 0.66 0 1 0 C1.04254356 1.99954746 1.04080783 4.00041636 1 6 C0.67 6.33 0.34 6.66 0 7 C-0.23678716 9.69235776 -0.42198025 12.36498156 -0.5625 15.0625 C-0.60568359 15.82111328 -0.64886719 16.57972656 -0.69335938 17.36132812 C-0.79973633 19.24065438 -0.90039934 21.12030244 -1 23 C-4.79850311 16.15666504 -2.93696997 8.25303353 -1 1 C-0.67 0.67 -0.34 0.34 0 0 Z " fill="#1C1F1A" transform="translate(332,585)"/>
<path d="M0 0 C0.8125 1.6875 0.8125 1.6875 1 4 C-2.21971104 7.80511304 -6.14251283 10.86018486 -10 14 C-10.66 13.67 -11.32 13.34 -12 13 C-11.55269531 12.56429687 -11.10539063 12.12859375 -10.64453125 11.6796875 C-6.85478464 7.94650427 -3.33540417 4.143987 0 0 Z " fill="#DCBD87" transform="translate(751,635)"/>
<path d="M0 0 C0 3.6635921 -0.70387217 4.22881124 -3 7 C-3.61488281 7.78697266 -3.61488281 7.78697266 -4.2421875 8.58984375 C-5.44434301 10.10142982 -6.71892833 11.55468837 -8 13 C-8.66 13 -9.32 13 -10 13 C-9.3827828 9.65046766 -8.16796835 7.52121176 -6.125 4.8125 C-5.61195313 4.11769531 -5.09890625 3.42289063 -4.5703125 2.70703125 C-3 1 -3 1 0 0 Z " fill="#E1BE83" transform="translate(763,622)"/>
<path d="M0 0 C3.18005028 3.88672813 6.10554447 7.89952133 9 12 C8.01 13.485 8.01 13.485 7 15 C4.525 14.01 4.525 14.01 2 13 C2.99 12.01 3.98 11.02 5 10 C4.505 9.38125 4.01 8.7625 3.5 8.125 C2 6 2 6 2 4 C1.34 4 0.68 4 0 4 C0 2.68 0 1.36 0 0 Z " fill="#E1C08F" transform="translate(349,735)"/>
<path d="M0 0 C-5.01441461 4.43582831 -10.67645613 4.11129425 -17.046875 4.23046875 C-19 4 -19 4 -21 2 C-20.01257813 1.93941406 -19.02515625 1.87882813 -18.0078125 1.81640625 C-16.72648437 1.73261719 -15.44515625 1.64882813 -14.125 1.5625 C-12.84882813 1.48128906 -11.57265625 1.40007813 -10.2578125 1.31640625 C-6.54176911 0.95549556 -3.82085976 -0.10054894 0 0 Z " fill="#A4875D" transform="translate(447,685)"/>
<path d="M0 0 C1.875 1.5 1.875 1.5 3 3 C1.72125 2.95875 0.4425 2.9175 -0.875 2.875 C-3.01871492 2.75787127 -3.01871492 2.75787127 -5 3 C-7.29575603 5.29575603 -7.32339599 6.00842525 -7.625 9.125 C-7.74875 10.40375 -7.8725 11.6825 -8 13 C-8.33 13 -8.66 13 -9 13 C-10.58169597 4.95398139 -10.58169597 4.95398139 -8.4375 1.4375 C-5.33802098 -0.39039788 -3.54376481 -0.52779476 0 0 Z " fill="#CCAD78" transform="translate(383,387)"/>
<path d="M0 0 C4.03321763 1.21934486 7.54269479 2.55954927 11 5 C11 5.66 11 6.32 11 7 C11.598125 7.268125 12.19625 7.53625 12.8125 7.8125 C14.97224808 8.98493467 16.35790256 10.19369282 18 12 C14.0763785 12 13.08856677 10.68716498 10.125 8.1875 C6.86935049 5.45454651 3.64621275 3.17596567 0 1 C0 0.67 0 0.34 0 0 Z " fill="#BC9C70" transform="translate(449,566)"/>
<path d="M0 0 C0.99 0 1.98 0 3 0 C1.56394807 3.38818502 -0.20466579 5.3186598 -3 7.6875 C-3.70125 8.28949219 -4.4025 8.89148438 -5.125 9.51171875 C-7 11 -7 11 -9 12 C-9 11.01 -9 10.02 -9 9 C-8.34 9 -7.68 9 -7 9 C-6.67 7.35 -6.34 5.7 -6 4 C-5.01 4 -4.02 4 -3 4 C-2.67 3.34 -2.34 2.68 -2 2 C-1.34 2 -0.68 2 0 2 C0 1.34 0 0.68 0 0 Z " fill="#D8BE8E" transform="translate(548,556)"/>
<path d="M0 0 C1.98 0 3.96 0 6 0 C3.10414095 2.29648357 0.1827969 4.04347557 -3.125 5.6875 C-4.42824219 6.34298828 -4.42824219 6.34298828 -5.7578125 7.01171875 C-8 8 -8 8 -10 8 C-10 7.34 -10 6.68 -10 6 C-9.01 6 -8.02 6 -7 6 C-7.33 5.01 -7.66 4.02 -8 3 C-6.8553125 3.0309375 -6.8553125 3.0309375 -5.6875 3.0625 C-2.89814214 3.12942841 -2.89814214 3.12942841 0 2 C0 1.34 0 0.68 0 0 Z " fill="#BEA26F" transform="translate(642,533)"/>
<path d="M0 0 C0.33 0.66 0.66 1.32 1 2 C-0.49786883 5.51999175 -1.94585316 8.60979813 -5 11 C-5.66 11 -6.32 11 -7 11 C-7.33 11.99 -7.66 12.98 -8 14 C-8.66 13.67 -9.32 13.34 -10 13 C-5.05 6.565 -5.05 6.565 0 0 Z " fill="#E6E5DA" transform="translate(254,442)"/>
<path d="M0 0 C0.33 0.66 0.66 1.32 1 2 C-1.01169739 5.01754609 -1.58905191 5.51915343 -4.6875 6.9375 C-8.58112579 8.78109978 -12.27912155 10.82948757 -16 13 C-16 12.34 -16 11.68 -16 11 C-14.13319132 9.61750489 -12.20450208 8.31796366 -10.25 7.0625 C-6.74894979 4.80034799 -3.29691194 2.55270609 0 0 Z " fill="#181A19" transform="translate(665,635)"/>
<path d="M0 0 C0.53109375 0.24621094 1.0621875 0.49242187 1.609375 0.74609375 C-0.390625 2.74609375 -0.390625 2.74609375 -2.640625 3.55859375 C-6.18911488 5.0908962 -8.4985485 7.19030522 -11.390625 9.74609375 C-12.380625 9.08609375 -13.370625 8.42609375 -14.390625 7.74609375 C-12.4848257 6.37667507 -10.56555927 5.02598212 -8.640625 3.68359375 C-7.57328125 2.92949219 -6.5059375 2.17539062 -5.40625 1.3984375 C-2.390625 -0.25390625 -2.390625 -0.25390625 0 0 Z " fill="#151C1B" transform="translate(623.390625,615.25390625)"/>
<path d="M0 0 C0.33 1.32 0.66 2.64 1 4 C0.01 4.33 -0.98 4.66 -2 5 C-2.9590625 6.485 -2.9590625 6.485 -3.9375 8 C-6 11 -6 11 -8.12890625 11.6875 C-8.74636719 11.790625 -9.36382813 11.89375 -10 12 C-3.84965831 3.55353075 -3.84965831 3.55353075 0 0 Z " fill="#B49467" transform="translate(554,573)"/>
<path d="M0 0 C-4 2.66666667 -8 5.33333333 -12 8 C-12.33 6.68 -12.66 5.36 -13 4 C-4.738041 -0.59225513 -4.738041 -0.59225513 0 0 Z " fill="#C2B089" transform="translate(389,599)"/>
<path d="M0 0 C-2.44563312 2.44563312 -4.75525172 3.34131255 -7.9375 4.6875 C-8.99839844 5.14511719 -10.05929687 5.60273437 -11.15234375 6.07421875 C-14 7 -14 7 -17 6 C-16.34 6 -15.68 6 -15 6 C-15 5.34 -15 4.68 -15 4 C-13.44219668 3.32243118 -11.87849904 2.65840543 -10.3125 2 C-9.44238281 1.62875 -8.57226562 1.2575 -7.67578125 0.875 C-4.9427998 -0.01870488 -2.85299066 -0.16449676 0 0 Z " fill="#C6A274" transform="translate(655,559)"/>
<path d="M0 0 C0 3 0 3 -1 5 C0.32 5.33 1.64 5.66 3 6 C-1.95 7.485 -1.95 7.485 -7 9 C-5.03681826 5.46627288 -2.95929119 2.75520215 0 0 Z " fill="#CBB388" transform="translate(548,742)"/>
<path d="M0 0 C3.39192363 0.59283621 5.2107757 1.76743189 7.75 4.0625 C8.67039062 4.88427734 8.67039062 4.88427734 9.609375 5.72265625 C10.29773438 6.35494141 10.29773438 6.35494141 11 7 C10.67 8.32 10.34 9.64 10 11 C8.33035479 9.35718838 6.6643536 7.71067239 5 6.0625 C4.071875 5.14597656 3.14375 4.22945312 2.1875 3.28515625 C0 1 0 1 0 0 Z " fill="#D2B687" transform="translate(484,561)"/>
<path d="M0 0 C0.99 0.33 1.98 0.66 3 1 C-3.69424101 7.87516644 -3.69424101 7.87516644 -7.04296875 8.1953125 C-7.75066406 8.17210937 -8.45835937 8.14890625 -9.1875 8.125 C-11.0746875 8.063125 -11.0746875 8.063125 -13 8 C-13 7.67 -13 7.34 -13 7 C-10.69 7 -8.38 7 -6 7 C-6 6.34 -6 5.68 -6 5 C-5.34 5 -4.68 5 -4 5 C-4 4.34 -4 3.68 -4 3 C-2.68 3 -1.36 3 0 3 C0 2.01 0 1.02 0 0 Z " fill="#D8BC8B" transform="translate(297,374)"/>
<path d="M0 0 C0 4.09632497 -1.55398196 5.76067881 -4 9 C-6.75 11.375 -6.75 11.375 -9 13 C-9.66 12.67 -10.32 12.34 -11 12 C-10.45730469 11.46890625 -9.91460938 10.9378125 -9.35546875 10.390625 C-8.64003906 9.68421875 -7.92460938 8.9778125 -7.1875 8.25 C-6.47980469 7.55390625 -5.77210938 6.8578125 -5.04296875 6.140625 C-3.17724121 4.18571355 -1.56830358 2.19661447 0 0 Z " fill="#141817" transform="translate(754,682)"/>
<path d="M0 0 C0.81788791 2.89558705 1.18892672 5.55464087 1.25 8.5625 C1.27578125 9.32691406 1.3015625 10.09132813 1.328125 10.87890625 C0.92308006 13.49723244 0.00903813 14.34518701 -2 16 C-2.20413361 10.26157749 -2.27141454 5.39460953 0 0 Z " fill="#BFAA87" transform="translate(525,575)"/>
<path d="M0 0 C0.5625 1.9375 0.5625 1.9375 1 4 C0.67 4.33 0.34 4.66 0 5 C-0.23287008 6.68183948 -0.41264166 8.3712416 -0.5625 10.0625 C-0.68818359 11.44115234 -0.68818359 11.44115234 -0.81640625 12.84765625 C-0.87699219 13.55792969 -0.93757813 14.26820313 -1 15 C-1.66 15 -2.32 15 -3 15 C-3.55353075 4.44191344 -3.55353075 4.44191344 0 0 Z " fill="#D6BB90" transform="translate(368,323)"/>
<path d="M0 0 C1.32 0.33 2.64 0.66 4 1 C-0.8665458 4.34169478 -5.63324933 7.52303815 -11 10 C-11 9.34 -11 8.68 -11 8 C-9.35 7.34 -7.7 6.68 -6 6 C-6 5.34 -6 4.68 -6 4 C-4.02 3.01 -2.04 2.02 0 1 C0 0.67 0 0.34 0 0 Z " fill="#DEC28F" transform="translate(569,693)"/>
<path d="M0 0 C2.35082212 2.89642841 3.83519406 5.65356331 5.1875 9.125 C5.53167969 9.99382813 5.87585938 10.86265625 6.23046875 11.7578125 C7 14 7 14 7 16 C6.01 15.67 5.02 15.34 4 15 C4 13.35 4 11.7 4 10 C3.34 10 2.68 10 2 10 C0.68373308 6.38026598 0 3.90432869 0 0 Z " fill="#D0B588" transform="translate(333,702)"/>
<path d="M0 0 C0.66 0 1.32 0 2 0 C2 0.66 2 1.32 2 2 C3.32 2 4.64 2 6 2 C6 2.66 6 3.32 6 4 C6.598125 4.12375 7.19625 4.2475 7.8125 4.375 C10 5 10 5 13 7 C12.67 7.66 12.34 8.32 12 9 C7.71 6.69 3.42 4.38 -1 2 C-0.67 1.34 -0.34 0.68 0 0 Z " fill="#D9BD8D" transform="translate(449,537)"/>
<path d="M0 0 C2 3.75 2 3.75 2 6 C2.66 6.33 3.32 6.66 4 7 C1.03 7 -1.94 7 -5 7 C-4.67 6.34 -4.34 5.68 -4 5 C-3.34 5 -2.68 5 -2 5 C-1.34 3.35 -0.68 1.7 0 0 Z " fill="#D6B98C" transform="translate(686,717)"/>
<path d="M0 0 C2.97 0.495 2.97 0.495 6 1 C5.39009109 4.55780196 4.4216319 7.6828589 3 11 C2.34 11 1.68 11 1 11 C1 9.68 1 8.36 1 7 C1.66 7 2.32 7 3 7 C3.33 5.35 3.66 3.7 4 2 C2.35 2 0.7 2 -1 2 C-0.67 1.34 -0.34 0.68 0 0 Z " fill="#D5BC8A" transform="translate(642,716)"/>
<path d="M0 0 C0.33 0.66 0.66 1.32 1 2 C-1.97088618 5.99926986 -5.12948725 8.92118304 -9 12 C-9.66 11.67 -10.32 11.34 -11 11 C-7.37 7.37 -3.74 3.74 0 0 Z " fill="#DEC18B" transform="translate(578,632)"/>
<path d="M0 0 C1 2 1 2 0.0625 5.125 C-0.288125 6.07375 -0.63875 7.0225 -1 8 C-3.97 7.505 -3.97 7.505 -7 7 C-4.78071806 4.09197539 -3.07030857 2.04687238 0 0 Z " fill="#E3E3D7" transform="translate(736,722)"/>
<path d="M0 0 C0.66 0 1.32 0 2 0 C4.48063781 9.41002278 4.48063781 9.41002278 3 14 C1.20724134 10.88089144 0.65709282 8.32317572 0.375 4.75 C0.30023437 3.85796875 0.22546875 2.9659375 0.1484375 2.046875 C0.09945312 1.37140625 0.05046875 0.6959375 0 0 Z " fill="#D7B98B" transform="translate(679,358)"/>
<path d="M0 0 C2 2 2 2 2.3125 5.875 C2.24088781 9.45560962 1.60208598 11.39791402 -1 14 C-1.66 13.67 -2.32 13.34 -3 13 C-2.68289063 12.43796875 -2.36578125 11.8759375 -2.0390625 11.296875 C-0.93125475 8.84803683 -0.61024601 6.91612145 -0.375 4.25 C-0.30023438 3.45078125 -0.22546875 2.6515625 -0.1484375 1.828125 C-0.09945313 1.22484375 -0.05046875 0.6215625 0 0 Z " fill="#101618" transform="translate(301,306)"/>
<path d="M0 0 C0 0.99 0 1.98 0 3 C-0.61875 3.0825 -1.2375 3.165 -1.875 3.25 C-4.18437567 3.81258459 -4.18437567 3.81258459 -5.25 6.0625 C-5.4975 6.701875 -5.745 7.34125 -6 8 C-7.32 7.67 -8.64 7.34 -10 7 C-6.7 4.69 -3.4 2.38 0 0 Z " fill="#D6BC8F" transform="translate(502,785)"/>
<path d="M0 0 C0.99 0 1.98 0 3 0 C3.93619813 3.15506142 4.1057123 5.96586502 4.0625 9.25 C4.05347656 10.14203125 4.04445313 11.0340625 4.03515625 11.953125 C4.02355469 12.62859375 4.01195312 13.3040625 4 14 C3.67 14 3.34 14 3 14 C2.67 10.37 2.34 6.74 2 3 C1.34 3 0.68 3 0 3 C0 2.01 0 1.02 0 0 Z " fill="#C5A66F" transform="translate(461,636)"/>
<path d="M0 0 C0.33 0.66 0.66 1.32 1 2 C-1.68058098 5.57410797 -4.42589203 8.31941902 -8 11 C-8.66 10.67 -9.32 10.34 -10 10 C-6.7 6.7 -3.4 3.4 0 0 Z " fill="#D6D3CC" transform="translate(704,630)"/>
<path d="M0 0 C0.99 0.33 1.98 0.66 3 1 C3 1.66 3 2.32 3 3 C2.4225 3.061875 1.845 3.12375 1.25 3.1875 C-1.86792094 4.3134159 -3.01380163 6.41794211 -5 9 C-5.66 9 -6.32 9 -7 9 C-5.44499019 5.18315774 -2.96404505 2.80804268 0 0 Z " fill="#3C6271" transform="translate(388,618)"/>
<path d="M0 0 C4 2 4 2 5.8125 5.4375 C7 9 7 9 6 12 C4.02 8.04 2.04 4.08 0 0 Z " fill="#B29062" transform="translate(474,588)"/>
<path d="M0 0 C0 0.99 0 1.98 0 3 C-0.969375 3.474375 -1.93875 3.94875 -2.9375 4.4375 C-5.80477437 5.70193947 -5.80477437 5.70193947 -7 7 C-8.66617115 7.04063832 -10.33388095 7.042721 -12 7 C-8.35140239 3.95950199 -4.2555467 2.03481238 0 0 Z " fill="#1B1C1A" transform="translate(596,558)"/>
<path d="M0 0 C0 0.66 0 1.32 0 2 C-1.24460783 2.67667998 -2.49596896 3.34094719 -3.75 4 C-4.79414062 4.556875 -4.79414062 4.556875 -5.859375 5.125 C-8 6 -8 6 -12 6 C-12 5.34 -12 4.68 -12 4 C-10.3767313 3.3291288 -8.75132422 2.66342971 -7.125 2 C-6.22007812 1.62875 -5.31515625 1.2575 -4.3828125 0.875 C-2 0 -2 0 0 0 Z " fill="#CFB482" transform="translate(606,515)"/>
<path d="M0 0 C4.49996683 -0.44117322 6.34611117 -0.52867608 9.9375 2.375 C12 5 12 5 12 7 C11.01 6.67 10.02 6.34 9 6 C8.67 5.01 8.34 4.02 8 3 C5.03 2.67 2.06 2.34 -1 2 C-0.67 1.34 -0.34 0.68 0 0 Z " fill="#C4A979" transform="translate(648,387)"/>
<path d="M0 0 C0.66 0.33 1.32 0.66 2 1 C1.23883449 2.15227823 0.46567307 3.2966386 -0.3125 4.4375 C-0.74175781 5.07558594 -1.17101562 5.71367187 -1.61328125 6.37109375 C-3 8 -3 8 -6 9 C-4.83857315 4.64464931 -3.92300495 2.35380297 0 0 Z " fill="#DBB888" transform="translate(280,299)"/>
<path d="M0 0 C0.99 0.33 1.98 0.66 3 1 C0.69 3.64 -1.62 6.28 -4 9 C-4.66 8.67 -5.32 8.34 -6 8 C-6 7.34 -6 6.68 -6 6 C-5.34 6 -4.68 6 -4 6 C-4 5.01 -4 4.02 -4 3 C-3.01 3 -2.02 3 -1 3 C-0.67 2.01 -0.34 1.02 0 0 Z " fill="#4F6E6E" transform="translate(545,742)"/>
<path d="M0 0 C0.66 0.33 1.32 0.66 2 1 C0.35 4.3 -1.3 7.6 -3 11 C-3.33 11 -3.66 11 -4 11 C-3.38461538 3.49230769 -3.38461538 3.49230769 -1.4375 1 C-0.963125 0.67 -0.48875 0.34 0 0 Z " fill="#E7E6DE" transform="translate(256,473)"/>
<path d="M0 0 C2.52588702 2.36292656 3.88820837 3.66462511 5 7 C-0.94 6.01 -0.94 6.01 -7 5 C-7 4.67 -7 4.34 -7 4 C-4.36 4 -1.72 4 1 4 C0.67 2.68 0.34 1.36 0 0 Z " fill="#C2AE89" transform="translate(543,302)"/>
<path d="M0 0 C0.66 0.33 1.32 0.66 2 1 C-3.445 5.455 -3.445 5.455 -9 10 C-9 9.01 -9 8.02 -9 7 C-7.03125 5.17578125 -7.03125 5.17578125 -4.5 3.3125 C-3.6646875 2.68988281 -2.829375 2.06726563 -1.96875 1.42578125 C-1.3190625 0.95527344 -0.669375 0.48476563 0 0 Z " fill="#151C25" transform="translate(701,663)"/>
<path d="M0 0 C0.66 0 1.32 0 2 0 C0.33333333 3.33333333 -1.33333333 6.66666667 -3 10 C-4.32 9.67 -5.64 9.34 -7 9 C-5.88266271 7.49428343 -4.75589965 5.99555708 -3.625 4.5 C-2.99851562 3.6646875 -2.37203125 2.829375 -1.7265625 1.96875 C-1.15679688 1.3190625 -0.58703125 0.669375 0 0 Z " fill="#1A222B" transform="translate(745,614)"/>
<path d="M0 0 C4.38889325 0.66498383 7.9811485 2.18757677 12 4 C11.67 4.66 11.34 5.32 11 6 C6.95743617 4.77782954 3.50711041 3.37245704 0 1 C0 0.67 0 0.34 0 0 Z " fill="#D0B788" transform="translate(411,519)"/>
<path d="M0 0 C1.98 0.66 3.96 1.32 6 2 C4.02 2.99 4.02 2.99 2 4 C2 6.31 2 8.62 2 11 C1.34 10.67 0.68 10.34 0 10 C0 6.7 0 3.4 0 0 Z " fill="#191D26" transform="translate(453,429)"/>
<path d="M0 0 C0.66 0.33 1.32 0.66 2 1 C0.1875 3 0.1875 3 -2 5 C-2.99 5 -3.98 5 -5 5 C-5.33 5.99 -5.66 6.98 -6 8 C-6.99 7.67 -7.98 7.34 -9 7 C-6.03 4.69 -3.06 2.38 0 0 Z " fill="#EBE7DD" transform="translate(397,230)"/>
<path d="M0 0 C-2.73704754 2.73704754 -5.26044774 3.16182449 -9 4 C-11.4375 3.625 -11.4375 3.625 -13 3 C-8.37802694 0.78145293 -5.23175837 -0.38281159 0 0 Z " fill="#D6BC90" transform="translate(567,787)"/>
<path d="M0 0 C-3.00440021 2.00293347 -4.70993945 2.49271626 -8.1875 3.125 C-9.53908203 3.37636719 -9.53908203 3.37636719 -10.91796875 3.6328125 C-11.60503906 3.75398437 -12.29210937 3.87515625 -13 4 C-13 3.34 -13 2.68 -13 2 C-8.50343896 -0.24828052 -4.92127034 -0.16682272 0 0 Z " fill="#1E1B1C" transform="translate(578,753)"/>
<path d="M0 0 C-1.65 1.32 -3.3 2.64 -5 4 C-7.475 3.01 -7.475 3.01 -10 2 C-6.19832777 -0.53444815 -4.31588991 -1.33941411 0 0 Z " fill="#476161" transform="translate(563,729)"/>
<path d="M0 0 C1.32 0.66 2.64 1.32 4 2 C2.35 3.65 0.7 5.3 -1 7 C-2 4 -2 4 -1.0625 1.8125 C-0.5365625 0.9153125 -0.5365625 0.9153125 0 0 Z " fill="#AF8F63" transform="translate(568,599)"/>
<path d="M0 0 C-0.66 1.32 -1.32 2.64 -2 4 C-2.33 3.34 -2.66 2.68 -3 2 C-3.99 2.495 -3.99 2.495 -5 3 C-7.6723621 3.13415472 -10.32250488 3.04318541 -13 3 C-13 2.67 -13 2.34 -13 2 C-11.58461283 1.66127487 -10.16762037 1.32925376 -8.75 1 C-7.56664062 0.7215625 -7.56664062 0.7215625 -6.359375 0.4375 C-4 0 -4 0 0 0 Z " fill="#A69679" transform="translate(707,597)"/>
<path d="M0 0 C1.32 0.66 2.64 1.32 4 2 C4 2.66 4 3.32 4 4 C3.34 4 2.68 4 2 4 C2 4.66 2 5.32 2 6 C0.35 6 -1.3 6 -3 6 C-2.01 4.02 -1.02 2.04 0 0 Z " fill="#12293B" transform="translate(266,538)"/>
<path d="M0 0 C0.33 0.99 0.66 1.98 1 3 C-1.8125 5.0625 -1.8125 5.0625 -5 7 C-5.99 6.67 -6.98 6.34 -8 6 C-5.36 4.02 -2.72 2.04 0 0 Z " fill="#D5BB81" transform="translate(560,536)"/>
<path d="M0 0 C0 0.66 0 1.32 0 2 C-7.38461538 4.21538462 -7.38461538 4.21538462 -10.5 3.125 C-10.995 2.75375 -11.49 2.3825 -12 2 C-10.7625 1.67 -9.525 1.34 -8.25 1 C-7.55390625 0.814375 -6.8578125 0.62875 -6.140625 0.4375 C-4 0 -4 0 0 0 Z " fill="#CDB483" transform="translate(590,751)"/>
<path d="M0 0 C5.75 0.875 5.75 0.875 8 2 C7.67 3.32 7.34 4.64 7 6 C5.83054208 5.19152271 4.66449539 4.37810888 3.5 3.5625 C2.8503125 3.11003906 2.200625 2.65757812 1.53125 2.19140625 C1.0259375 1.79824219 0.520625 1.40507812 0 1 C0 0.67 0 0.34 0 0 Z " fill="#C3AF8B" transform="translate(616,250)"/>
<path d="M0 0 C0 3.61537605 -0.89229241 5.11165997 -3 8 C-3.99 8 -4.98 8 -6 8 C-2.25 2.25 -2.25 2.25 0 0 Z " fill="#D9BD85" transform="translate(716,673)"/>
<path d="M0 0 C0.66 0.33 1.32 0.66 2 1 C-0.65654657 4.73884332 -2.58110387 6.64978174 -7 8 C-6.02133662 6.85373678 -5.04205413 5.70800212 -4.0625 4.5625 C-3.51722656 3.92441406 -2.97195313 3.28632812 -2.41015625 2.62890625 C-1.63204305 1.73008851 -0.84063472 0.84063472 0 0 Z " fill="#DABE89" transform="translate(595,616)"/>
<path d="M0 0 C-1.15173355 2.46800047 -2.04783565 4.04783565 -4 6 C-4.99 5.34 -5.98 4.68 -7 4 C-3.375 0 -3.375 0 0 0 Z " fill="#DFBE86" transform="translate(327,582)"/>
<path d="M0 0 C0.33 0.99 0.66 1.98 1 3 C-2.3 4.32 -5.6 5.64 -9 7 C-9 6.34 -9 5.68 -9 5 C-6.03 3.35 -3.06 1.7 0 0 Z " fill="#D5BB86" transform="translate(571,530)"/>
<path d="M0 0 C0.33 0 0.66 0 1 0 C1.125 2.875 1.125 2.875 1 6 C0.34 6.66 -0.32 7.32 -1 8 C-0.67 8.66 -0.34 9.32 0 10 C-1.32 10.33 -2.64 10.66 -4 11 C-2.68 7.37 -1.36 3.74 0 0 Z " fill="#121C26" transform="translate(251,485)"/>
<path d="M0 0 C0.33 0 0.66 0 1 0 C1 3.3 1 6.6 1 10 C0.01 9.67 -0.98 9.34 -2 9 C-1.125 1.125 -1.125 1.125 0 0 Z " fill="#272A2F" transform="translate(494,428)"/>
<path d="M0 0 C0 3 0 3 -1.3125 4.38671875 C-2.875 5.59114583 -4.4375 6.79557292 -6 8 C-6.66 7.67 -7.32 7.34 -8 7 C-5.36 4.69 -2.72 2.38 0 0 Z " fill="#E4E3DB" transform="translate(274,422)"/>
<path d="M0 0 C5.66153846 1.47692308 5.66153846 1.47692308 7.375 4.125 C7.684375 5.053125 7.684375 5.053125 8 6 C5 6 5 6 3.61328125 4.6875 C2.40885417 3.125 1.20442708 1.5625 0 0 Z " fill="#D8D6CD" transform="translate(688,278)"/>
<path d="M0 0 C0.66 0.66 1.32 1.32 2 2 C-1.44615385 6.8 -1.44615385 6.8 -4.25 7.8125 C-5.11625 7.9053125 -5.11625 7.9053125 -6 8 C-2.25 2.25 -2.25 2.25 0 0 Z " fill="#D6D6CA" transform="translate(363,261)"/>
<path d="M0 0 C0 0.66 0 1.32 0 2 C-2.90567134 4.01782732 -5.51669784 5.35494404 -9 6 C-9 5.34 -9 4.68 -9 4 C-2.25 0 -2.25 0 0 0 Z " fill="#141817" transform="translate(628,661)"/>
<path d="M0 0 C0.66 0 1.32 0 2 0 C1.71640113 1.4391134 1.42278601 2.87625518 1.125 4.3125 C0.88136719 5.51326172 0.88136719 5.51326172 0.6328125 6.73828125 C0 9 0 9 -2 12 C-1.85904936 10.3745692 -1.71207913 8.74965949 -1.5625 7.125 C-1.48128906 6.22007812 -1.40007812 5.31515625 -1.31640625 4.3828125 C-1 2 -1 2 0 0 Z " fill="#D5BB8D" transform="translate(365,621)"/>
<path d="M0 0 C0.66 0 1.32 0 2 0 C0.68775452 3.93673644 -0.91910327 6.22719294 -4 9 C-4 8.01 -4 7.02 -4 6 C-3.34 6 -2.68 6 -2 6 C-2 4.68 -2 3.36 -2 2 C-1.34 2 -0.68 2 0 2 C0 1.34 0 0.68 0 0 Z " fill="#171917" transform="translate(771,604)"/>
<path d="M0 0 C3.22430866 4.83646298 3.09242903 7.26939984 3 13 C2.67 13 2.34 13 2 13 C0.54815522 8.46298506 -0.23509196 4.81938524 0 0 Z " fill="#9F7B50" transform="translate(497,603)"/>
<path d="M0 0 C4.75 1.875 4.75 1.875 7 3 C7.33 2.34 7.66 1.68 8 1 C8.33 2.98 8.66 4.96 9 7 C7.4972763 6.02501855 5.99788037 5.04490611 4.5 4.0625 C3.6646875 3.51722656 2.829375 2.97195313 1.96875 2.41015625 C1.3190625 1.94480469 0.669375 1.47945312 0 1 C0 0.67 0 0.34 0 0 Z " fill="#A38D73" transform="translate(457,600)"/>
<path d="M0 0 C0.66 0 1.32 0 2 0 C2.33 1.32 2.66 2.64 3 4 C3.66 4 4.32 4 5 4 C5 5.65 5 7.3 5 9 C4.34 9 3.68 9 3 9 C2.01 6.03 1.02 3.06 0 0 Z " fill="#DABC8F" transform="translate(666,317)"/>
<path d="M0 0 C1 4 1 4 0.00390625 5.703125 C-1.33072917 7.13541667 -2.66536458 8.56770833 -4 10 C-4.66 9.67 -5.32 9.34 -6 9 C-4.02 6.03 -2.04 3.06 0 0 Z " fill="#1B242E" transform="translate(729,740)"/>
<path d="M0 0 C0.33 0.99 0.66 1.98 1 3 C0.01 3.33 -0.98 3.66 -2 4 C-2 4.66 -2 5.32 -2 6 C-3.32 5.67 -4.64 5.34 -6 5 C-4.02 3.35 -2.04 1.7 0 0 Z " fill="#14191A" transform="translate(673,629)"/>
<path d="M0 0 C0 3.12900213 -0.42451317 4.37418862 -2 7 C-2.99 7.495 -2.99 7.495 -4 8 C-4.33 7.01 -4.66 6.02 -5 5 C-3.35 3.35 -1.7 1.7 0 0 Z " fill="#CEAF7B" transform="translate(314,591)"/>
<path d="M0 0 C0.33 0.99 0.66 1.98 1 3 C-0.65 4.32 -2.3 5.64 -4 7 C-3.6875 4.625 -3.6875 4.625 -3 2 C-2.01 1.34 -1.02 0.68 0 0 Z " fill="#DDBB80" transform="translate(319,587)"/>
<path d="M0 0 C0.33 0.99 0.66 1.98 1 3 C-0.75 4.125 -0.75 4.125 -3 5 C-5.25 4.125 -5.25 4.125 -7 3 C-4.69 2.01 -2.38 1.02 0 0 Z " fill="#E1E0D0" transform="translate(438,207)"/>
<path d="M0 0 C-0.33 0.99 -0.66 1.98 -1 3 C-3.31 3.33 -5.62 3.66 -8 4 C-3.375 0 -3.375 0 0 0 Z " fill="#181C1A" transform="translate(553,707)"/>
<path d="M0 0 C0.99 0.33 1.98 0.66 3 1 C0.60490662 3.89932357 -1.31245243 4.50168276 -5 5 C-3.35 3.35 -1.7 1.7 0 0 Z " fill="#DFC386" transform="translate(530,680)"/>
<path d="M0 0 C2.0625 0.4375 2.0625 0.4375 4 1 C-0.75 5 -0.75 5 -3 5 C-1.125 1.125 -1.125 1.125 0 0 Z " fill="#131D22" transform="translate(676,652)"/>
<path d="M0 0 C0.99 0.33 1.98 0.66 3 1 C0.03 3.475 0.03 3.475 -3 6 C-3.66 5.67 -4.32 5.34 -5 5 C-3.35 3.35 -1.7 1.7 0 0 Z " fill="#EEEBDE" transform="translate(693,641)"/>
<path d="M0 0 C0.99 0 1.98 0 3 0 C2.3125 1.9375 2.3125 1.9375 1 4 C-1.625 4.75 -1.625 4.75 -4 5 C-2.1875 2.5 -2.1875 2.5 0 0 Z " fill="#DABB84" transform="translate(583,627)"/>
<path d="M0 0 C0.33 1.32 0.66 2.64 1 4 C-0.65 4.33 -2.3 4.66 -4 5 C-4 4.34 -4 3.68 -4 3 C-4.66 3 -5.32 3 -6 3 C-5.67 2.34 -5.34 1.68 -5 1 C-3.02 1.495 -3.02 1.495 -1 2 C-0.67 1.34 -0.34 0.68 0 0 Z " fill="#A67640" transform="translate(545,623)"/>
<path d="M0 0 C-1.39332574 3.36720387 -2.9789286 4.9859524 -6 7 C-6.66 6.67 -7.32 6.34 -8 6 C-7.0479279 4.99403703 -6.08812654 3.99538437 -5.125 3 C-4.59132813 2.443125 -4.05765625 1.88625 -3.5078125 1.3125 C-2 0 -2 0 0 0 Z " fill="#211F1A" transform="translate(570,575)"/>
<path d="M0 0 C1.98 0 3.96 0 6 0 C3.06171403 2.50298434 0.82097239 3.46930939 -3 4 C-2.67 3.34 -2.34 2.68 -2 2 C-1.34 2 -0.68 2 0 2 C0 1.34 0 0.68 0 0 Z " fill="#C6AA76" transform="translate(642,533)"/>
<path d="M0 0 C1.32 0.33 2.64 0.66 4 1 C3.34 1.66 2.68 2.32 2 3 C1.83318891 6.08347826 1.83318891 6.08347826 2 9 C1.01 9.495 1.01 9.495 0 10 C0 6.7 0 3.4 0 0 Z " fill="#1D2329" transform="translate(453,480)"/>
<path d="M0 0 C0.66 0 1.32 0 2 0 C1.6875 1.875 1.6875 1.875 1 4 C0.01 4.66 -0.98 5.32 -2 6 C-2 2 -2 2 0 0 Z " fill="#DEC085" transform="translate(405,373)"/>
<path d="M0 0 C0.66 0.33 1.32 0.66 2 1 C0.37660195 2.70884005 -1.29319053 4.37446717 -3 6 C-3.66 6 -4.32 6 -5 6 C-4.75 4.125 -4.75 4.125 -4 2 C-2.0625 0.6875 -2.0625 0.6875 0 0 Z " fill="#D8B67C" transform="translate(279,359)"/>
</svg>
